<?xml version="1.0" encoding="UTF-8"?>
<svg width="43px" height="26px" viewBox="0 0 43 26" version="1.1" xmlns="http://www.w3.org/2000/svg" xmlns:xlink="http://www.w3.org/1999/xlink">
    <!-- Generator: sketchtool 61.2 (101010) - https://sketch.com -->
    <title>0F6EE0D4-130C-4045-9D93-39C845C06BB0@1</title>
    <desc>Created with sketchtool.</desc>
    <defs>
        <polygon id="path-1" points="0 0.0313288713 25.788528 0.0313288713 25.788528 7.40681123 0 7.40681123"></polygon>
        <polygon id="path-3" points="0.0526857526 0.0313288713 21.6730054 0.0313288713 21.6730054 9.12730897 0.0526857526 9.12730897"></polygon>
    </defs>
    <g id="Page-1" stroke="none" stroke-width="1" fill="none" fill-rule="evenodd">
        <g id="Home-Page---Banner" transform="translate(-935.000000, -472.000000)">
            <g id="paypalstacked" transform="translate(935.000000, 472.000000)">
                <rect id="Rectangle" fill="#FFFFFF" x="0" y="0" width="42.4200013" height="25.4520008" rx="1.70649601"></rect>
                <g transform="translate(3.636000, 7.272000)">
                    <g id="Group-4" transform="translate(0.000000, 0.886235)">
                        <mask id="mask-2" fill="white">
                            <use xlink:href="#path-1"></use>
                        </mask>
                        <g id="Clip-2"></g>
                        <path d="M23.7409905,2.51790385 C23.593322,3.47096759 22.8529726,3.47096759 22.1368373,3.47096759 L21.7293377,3.47096759 L22.0151394,1.69151237 C22.0324531,1.58395813 22.1268003,1.50477256 22.237583,1.50477256 L22.42427,1.50477256 C22.9118141,1.50477256 23.3722585,1.50477256 23.6096321,1.77772843 C23.7516547,1.9411566 23.7946881,2.18327697 23.7409905,2.51790385 Z M23.4293436,0.0313288713 L20.7285298,0.0313288713 C20.5438502,0.0313288713 20.3866467,0.163428167 20.3579159,0.342767454 L19.2657719,7.15099989 C19.2441925,7.28531934 19.3498312,7.40681123 19.48809,7.40681123 L20.8738144,7.40681123 C21.00304,7.40681123 21.1131953,7.31430472 21.1332692,7.18886589 L21.4430341,5.25868673 C21.4717648,5.07934744 21.6289683,4.94724814 21.8136479,4.94724814 L22.668293,4.94724814 C24.4472143,4.94724814 25.4738673,4.10087525 25.7422299,2.42330053 C25.8630495,1.68966224 25.7471229,1.11316167 25.3977121,0.709586601 C25.0135484,0.26592538 24.3327933,0.0313288713 23.4293436,0.0313288713 L23.4293436,0.0313288713 Z" id="Fill-1" fill="#238EC2" mask="url(#mask-2)"></path>
                        <path d="M4.47810416,2.51790385 C4.33043575,3.47096759 3.58996085,3.47096759 2.87395097,3.47096759 L2.4664514,3.47096759 L2.75225313,1.69151237 C2.76956684,1.58395813 2.86378857,1.50477256 2.97457125,1.50477256 L3.16138371,1.50477256 C3.64880238,1.50477256 4.10937225,1.50477256 4.34674577,1.77772843 C4.4887684,1.9411566 4.53180176,2.18327697 4.47810416,2.51790385 Z M4.16633186,0.0313288713 L1.46551802,0.0313288713 C1.28096387,0.0313288713 1.12363491,0.163428167 1.09490418,0.342767454 L0.00276015722,7.15099989 C-0.0186937921,7.28531934 0.0868194906,7.40681123 0.225203737,7.40681123 L1.514699,7.40681123 C1.69937861,7.40681123 1.85658211,7.27471193 1.88531284,7.09537264 L2.18002235,5.25868673 C2.20887854,5.07934744 2.36608204,4.94724814 2.55076165,4.94724814 L3.40528124,4.94724814 C5.18432802,4.94724814 6.21098105,4.10087525 6.4793436,2.42330053 C6.60003775,1.68966224 6.48423661,1.11316167 6.13470034,0.709586601 C5.7506621,0.26592538 5.06990696,0.0313288713 4.16633186,0.0313288713 L4.16633186,0.0313288713 Z" id="Fill-3" fill="#253667" mask="url(#mask-2)"></path>
                    </g>
                    <path d="M10.4364054,5.84828439 C10.3114455,6.57476885 9.72491211,7.06246317 8.97665858,7.06246317 C8.60165358,7.06246317 8.30142375,6.94380815 8.10833821,6.71920234 C7.91700913,6.49657001 7.84499412,6.1794577 7.90571758,5.82620617 C8.02214603,5.10625884 8.61808906,4.60290008 9.35492558,4.60290008 C9.72215195,4.60290008 10.0203744,4.72254184 10.2172238,4.94924446 C10.4153278,5.17755052 10.493114,5.49688299 10.4364054,5.84828439 Z M12.2386626,3.37367358 L10.9455289,3.37367358 C10.8346208,3.37367358 10.7402736,3.45285915 10.7230853,3.56053673 L10.6662512,3.91600841 L10.5757933,3.78723935 C10.2957628,3.38748789 9.67159089,3.25403183 9.0482972,3.25403183 C7.61953946,3.25403183 6.39904812,4.3184734 6.16142368,5.81128179 C6.03784391,6.5561442 6.21336482,7.26782762 6.64282019,7.76464925 C7.03752267,8.2210147 7.6007202,8.41108474 8.27168933,8.41108474 C9.4233022,8.41108474 10.0620277,7.68373689 10.0620277,7.68373689 L10.0043153,8.03711175 C9.98273588,8.17143121 10.0883746,8.29304643 10.2267589,8.29304643 L11.3912943,8.29304643 C11.5759739,8.29304643 11.7331774,8.16107048 11.7619081,7.98173119 L12.4611061,3.62936158 C12.4826856,3.49504212 12.3770468,3.37367358 12.2386626,3.37367358 L12.2386626,3.37367358 Z" id="Fill-5" fill="#253667"></path>
                    <path d="M29.6992917,5.84828439 C29.5744573,6.57476885 28.9877984,7.06246317 28.2396703,7.06246317 C27.8645399,7.06246317 27.56431,6.94380815 27.3712245,6.71920234 C27.1798954,6.49657001 27.1078804,6.1794577 27.1686039,5.82620617 C27.2850323,5.10625884 27.8811008,4.60290008 28.6179373,4.60290008 C28.9851637,4.60290008 29.2832607,4.72254184 29.4801101,4.94924446 C29.6782141,5.17755052 29.7560003,5.49688299 29.6992917,5.84828439 Z M31.5016743,3.37367358 L30.2084152,3.37367358 C30.0976325,3.37367358 30.0032853,3.45285915 29.9860971,3.56053673 L29.9291375,3.91600841 L29.8388051,3.78723935 C29.5586491,3.38748789 28.9344772,3.25403183 28.3111835,3.25403183 C26.8824258,3.25403183 25.6619344,4.3184734 25.42431,5.81128179 C25.3007302,6.5561442 25.4762511,7.26782762 25.9058319,7.76464925 C26.300409,8.2210147 26.8636065,8.41108474 27.5345756,8.41108474 C28.6861885,8.41108474 29.3250394,7.68373689 29.3250394,7.68373689 L29.2672016,8.03711175 C29.2456222,8.17143121 29.3512609,8.29304643 29.4896452,8.29304643 L30.654306,8.29304643 C30.8388602,8.29304643 30.9960637,8.16107048 31.0249199,7.98173119 L31.7239924,3.62936158 C31.7455718,3.49504212 31.6399331,3.37367358 31.5016743,3.37367358 L31.5016743,3.37367358 Z" id="Fill-6" fill="#238EC2"></path>
                    <g id="Group-10" transform="translate(13.048016, 0.886235)">
                        <mask id="mask-4" fill="white">
                            <use xlink:href="#path-3"></use>
                        </mask>
                        <g id="Clip-8"></g>
                        <path d="M6.07861896,2.48743838 L4.77871037,2.48743838 C4.65437784,2.48743838 4.53807485,2.54812265 4.46831815,2.64913976 L2.67521965,5.24536579 L1.91529819,2.75052689 C1.8677482,2.59449924 1.72158533,2.48743838 1.55585044,2.48743838 L0.278023109,2.48743838 C0.123705228,2.48743838 0.0151808647,2.63668221 0.0648636946,2.78025232 L1.49625613,6.91048297 L0.149926722,8.77800438 C0.0442879772,8.9245347 0.150930415,9.12730897 0.333602638,9.12730897 L1.63225661,9.12730897 C1.75533453,9.12730897 1.87063382,9.06798146 1.94064145,8.9685678 L6.26367496,2.83489283 C6.36705539,2.68811583 6.26028749,2.48743838 6.07861896,2.48743838" id="Fill-7" fill="#253667" mask="url(#mask-4)"></path>
                        <path d="M19.9778925,0.218315363 L18.8694384,7.15112323 C18.8479845,7.28544268 18.9536232,7.40681123 19.091882,7.40681123 L20.2066091,7.40681123 C20.3912887,7.40681123 20.5484922,7.27471193 20.577223,7.09537264 L21.6702452,0.287263548 C21.6918246,0.152820754 21.5861859,0.0313288713 21.4478017,0.0313288713 L20.2003361,0.0313288713 C20.0894279,0.0313288713 19.9950807,0.110637786 19.9778925,0.218315363" id="Fill-9" fill="#238EC2" mask="url(#mask-4)"></path>
                    </g>
                </g>
            </g>
        </g>
    </g>
</svg>