<?xml version="1.0" encoding="UTF-8"?>
<svg width="43px" height="26px" viewBox="0 0 43 26" version="1.1" xmlns="http://www.w3.org/2000/svg" xmlns:xlink="http://www.w3.org/1999/xlink">
    <!-- Generator: sketchtool 61.2 (101010) - https://sketch.com -->
    <title>52D60E6E-AAD9-44F9-ADFD-5394C2518FE4@1</title>
    <desc>Created with sketchtool.</desc>
    <g id="Page-1" stroke="none" stroke-width="1" fill="none" fill-rule="evenodd">
        <g id="Home-Page---Banner" transform="translate(-880.000000, -472.000000)">
            <g id="Bank-Transfer-" transform="translate(880.000000, 472.000000)">
                <rect id="Rectangle-Copy" fill="#FFFFFF" transform="translate(21.210001, 12.726000) scale(1, -1) translate(-21.210001, -12.726000) " x="0" y="0" width="42.4200013" height="25.4520008" rx="1.70649601"></rect>
                <g id="Group-6" transform="translate(6.060000, 4.848000)" fill="#222222" fill-rule="nonzero">
                    <g id="Group-5-Copy">
                        <path d="M15.3823692,1.08109459 C15.5013402,1.08109459 15.5969071,1.04318736 15.6690699,0.967372892 C15.7412326,0.891558426 15.777314,0.784728952 15.777314,0.646884468 C15.777314,0.509039985 15.7422078,0.401718209 15.6719954,0.324919139 C15.601783,0.24812007 15.5052409,0.209720535 15.3823692,0.209720535 C15.2575471,0.209720535 15.1595423,0.248612372 15.0883547,0.326396045 C15.0171671,0.404179717 14.9815734,0.511009192 14.9815734,0.646884468 C14.9815734,0.780790538 15.0176547,0.886635409 15.0898175,0.964419082 C15.1619802,1.04220275 15.2594975,1.08109459 15.3823692,1.08109459 Z M16.4004492,1.08109459 C16.5194202,1.08109459 16.6154747,1.04220275 16.6886126,0.964419082 C16.7617505,0.886635409 16.7983195,0.780790538 16.7983195,0.646884468 C16.7983195,0.511009192 16.7632133,0.404179717 16.6930009,0.326396045 C16.6227885,0.248612372 16.5252712,0.209720535 16.4004492,0.209720535 C16.2756271,0.209720535 16.1776223,0.248612372 16.1064347,0.326396045 C16.0352471,0.404179717 15.9996533,0.511009192 15.9996533,0.646884468 C15.9996533,0.780790538 16.0357347,0.886635409 16.1078975,0.964419082 C16.1800602,1.04220275 16.2775775,1.08109459 16.4004492,1.08109459 Z M16.3477899,4.59612892 L16.3477899,1.60096521 L15.4555071,1.60096521 L15.4555071,3.86949157 L14.408172,3.86949157 C14.3886685,3.86949157 14.3789168,3.8773684 14.3789168,3.89312205 L14.3789168,3.89312205 L14.3789168,4.56659081 C14.3789168,4.58628288 14.3886685,4.59612892 14.408172,4.59612892 L14.408172,4.59612892 L16.3477899,4.59612892 Z M14.4666823,4.59612892 C14.4881361,4.59612892 14.498863,4.58628288 14.498863,4.56659081 L14.498863,4.56659081 L14.498863,3.89312205 C14.498863,3.8773684 14.4881361,3.86949157 14.4666823,3.86949157 L14.4666823,3.86949157 L14.0775886,3.86949157 C13.9020575,3.69620136 13.7626079,3.3092522 13.6592396,2.7086441 C13.5890272,2.29314144 13.4427513,1.9948066 13.220412,1.81363956 C12.9980727,1.63247252 12.6869927,1.54188901 12.2871721,1.54188901 C11.8093376,1.54188901 11.3919638,1.63838015 11.0350507,1.83136242 L11.0350507,1.83136242 L11.3041983,2.49596975 C11.4485238,2.41523227 11.5821224,2.35714067 11.7049941,2.32169494 C11.8278659,2.28624922 11.9595141,2.26852636 12.099939,2.26852636 C12.3125265,2.26852636 12.4719672,2.32317185 12.578261,2.43246283 C12.6845548,2.54175381 12.7650065,2.73227458 12.8196162,3.00402513 C12.9054313,3.43134303 13.0273279,3.71983184 13.1853058,3.86949157 L13.1853058,3.86949157 L10.7659031,3.86949157 C10.7463997,3.86949157 10.736648,3.8773684 10.736648,3.89312205 L10.736648,3.89312205 L10.736648,4.56659081 C10.736648,4.58628288 10.7463997,4.59612892 10.7659031,4.59612892 L10.7659031,4.59612892 L14.4666823,4.59612892 Z M8.4927763,6.04940361 C8.99596525,6.04940361 9.38554662,5.92238977 9.66152041,5.66836208 C9.93749419,5.41433439 10.0754811,5.05692333 10.0754811,4.59612892 L10.0754811,4.59612892 L10.8244135,4.59612892 C10.8439169,4.59612892 10.8536686,4.58628288 10.8536686,4.56659081 L10.8536686,4.56659081 L10.8536686,3.89312205 C10.8536686,3.8773684 10.8439169,3.86949157 10.8244135,3.86949157 L10.8244135,3.86949157 L10.0754811,3.86949157 L10.0754811,1.60096521 L9.16564525,1.60096521 C8.78727836,1.60096521 8.45376941,1.66496444 8.16511838,1.79296289 C7.87646736,1.92096134 7.65315288,2.10557448 7.49517495,2.34680233 C7.33719703,2.58803018 7.25820806,2.86814986 7.25820806,3.18716138 C7.25820806,3.63810976 7.3732784,3.98567478 7.60341909,4.22985643 C7.83355977,4.47403809 8.16219286,4.59612892 8.58931837,4.59612892 L8.58931837,4.59612892 L9.18319835,4.59612892 L9.18319835,4.62566702 C9.18319835,4.84424899 9.12176249,5.01606229 8.99889077,5.14110693 C8.87601905,5.26615157 8.70146319,5.32867389 8.4752232,5.32867389 C8.31919562,5.32867389 8.16901907,5.31144333 8.02469356,5.27698221 C7.88036804,5.24252108 7.72726598,5.18295258 7.56538736,5.09827668 L7.56538736,5.09827668 L7.21725082,5.75697639 C7.40058323,5.86725198 7.59122943,5.94355874 7.78918943,5.98589669 C7.98714942,6.02823464 8.22167838,6.04940361 8.4927763,6.04940361 Z M9.18319835,3.86949157 L8.77070043,3.86949157 C8.56981492,3.86949157 8.42061355,3.81238457 8.32309631,3.69817057 C8.22557907,3.58395657 8.17682045,3.40574334 8.17682045,3.16353089 C8.17682045,2.89768796 8.24849562,2.69190584 8.39184596,2.54618453 C8.5351963,2.40046322 8.73461905,2.32760256 8.99011422,2.32760256 L8.99011422,2.32760256 L9.18319835,2.32760256 L9.18319835,3.86949157 Z M6.31911706,4.59612892 L6.31911706,1.60096521 L5.42683432,1.60096521 L5.42683432,3.86949157 L4.37949918,3.86949157 C4.35999573,3.86949157 4.35024401,3.8773684 4.35024401,3.89312205 L4.35024401,3.89312205 L4.35024401,4.56659081 C4.35024401,4.58628288 4.35999573,4.59612892 4.37949918,4.59612892 L4.37949918,4.59612892 L6.31911706,4.59612892 Z M4.86220951,6.10847982 C4.98118054,6.10847982 5.07674744,6.07057259 5.14891019,5.99475812 C5.22107295,5.91894366 5.25715433,5.81211418 5.25715433,5.6742697 C5.25715433,5.53642521 5.22204812,5.42910344 5.15183571,5.35230437 C5.0816233,5.2755053 4.98508123,5.23710577 4.86220951,5.23710577 C4.73738745,5.23710577 4.63938262,5.2759976 4.56819504,5.35378127 C4.49700745,5.43156495 4.46141366,5.53839442 4.46141366,5.6742697 C4.46141366,5.80817577 4.49749504,5.91402064 4.5696578,5.99180431 C4.64182055,6.06958798 4.73933779,6.10847982 4.86220951,6.10847982 Z M5.88028948,6.10847982 C5.99926051,6.10847982 6.09531499,6.06958798 6.16845292,5.99180431 C6.24159085,5.91402064 6.27815982,5.80817577 6.27815982,5.6742697 C6.27815982,5.53839442 6.24305361,5.43156495 6.1728412,5.35378127 C6.10262879,5.2759976 6.00511155,5.23710577 5.88028948,5.23710577 C5.75546742,5.23710577 5.65746259,5.2759976 5.58627501,5.35378127 C5.51508742,5.43156495 5.47949363,5.53839442 5.47949363,5.6742697 C5.47949363,5.80817577 5.51557501,5.91402064 5.58773777,5.99180431 C5.65990052,6.06958798 5.75741776,6.10847982 5.88028948,6.10847982 Z M1.8928096,6.04940361 C2.99475439,6.04940361 3.58180817,5.56497872 3.65397093,4.59612892 L3.65397093,4.59612892 L4.44093504,4.59612892 C4.46043849,4.59612892 4.47019021,4.58628288 4.47019021,4.56659081 L4.47019021,4.56659081 L4.47019021,3.89312205 C4.47019021,3.8773684 4.46043849,3.86949157 4.44093504,3.86949157 L4.44093504,3.86949157 L3.65982196,3.86949157 L3.65982196,0 L2.76753923,0 L2.76753923,4.35982409 C2.76753923,4.66505116 2.69488889,4.90184829 2.5495882,5.07021548 C2.40428752,5.23858267 2.17755994,5.32276627 1.86940546,5.32276627 L1.86940546,5.32276627 L1.69094892,5.32276627 C1.45105651,5.32276627 1.25797238,5.23562886 1.11169652,5.06135405 C0.965420661,4.88707924 0.892282732,4.65323592 0.892282732,4.35982409 C0.892282732,4.15502657 0.910811008,3.9339831 0.947867558,3.69669366 C0.984924109,3.45940423 1.0346579,3.23245314 1.09706893,3.01584038 L1.09706893,3.01584038 L0.307179301,3.01584038 C0.211612408,3.20488424 0.136524134,3.41805089 0.0819144804,3.65534032 C0.0273048268,3.89262975 0,4.12548847 0,4.35391647 C0,4.68671244 0.0648489636,4.98160117 0.194546891,5.23858267 C0.324244818,5.49556417 0.512453088,5.69494637 0.759171702,5.83672927 C1.00589032,5.97851217 1.2960041,6.04940361 1.62951306,6.04940361 L1.62951306,6.04940361 L1.8928096,6.04940361 Z" id="تحويل"></path>
                        <path d="M16.1680797,12.4304715 L16.1680797,9.39642867 L15.2636688,9.39642867 L15.2636688,11.694402 L14.5045568,11.694402 C14.4847882,11.694402 14.474904,11.702381 14.474904,11.7183392 L14.474904,11.7183392 L14.474904,12.40055 C14.474904,12.4204977 14.4847882,12.4304715 14.5045568,12.4304715 L14.5045568,12.4304715 L16.1680797,12.4304715 Z M15.6639818,13.9624537 C15.7825931,13.9624537 15.8789647,13.9230571 15.9530968,13.8442637 C16.0272288,13.7654704 16.0642948,13.6582516 16.0642948,13.5226073 C16.0642948,13.3829735 16.0282172,13.2742586 15.956062,13.1964626 C15.8839069,13.1186667 15.7865468,13.0797687 15.6639818,13.0797687 C15.5354863,13.0797687 15.4351609,13.1191654 15.3630058,13.1979587 C15.2908506,13.2767521 15.254773,13.3849683 15.254773,13.5226073 C15.254773,13.6582516 15.2913448,13.7654704 15.3644884,13.8442637 C15.437632,13.9230571 15.5374631,13.9624537 15.6639818,13.9624537 Z M13.3154789,8.86980978 C13.4340902,8.86980978 13.5304618,8.83041311 13.6045938,8.75161975 C13.6787259,8.6728264 13.7157919,8.56560759 13.7157919,8.42996333 C13.7157919,8.29032954 13.6797143,8.18161465 13.6075591,8.10381868 C13.5354039,8.02602271 13.4380439,7.98712473 13.3154789,7.98712473 C13.1869834,7.98712473 13.086658,8.0265214 13.0145028,8.10531476 C12.9423476,8.18410811 12.9062701,8.29232431 12.9062701,8.42996333 C12.9062701,8.56560759 12.9428419,8.6728264 13.0159855,8.75161975 C13.0891291,8.83041311 13.1889602,8.86980978 13.3154789,8.86980978 Z M14.5638624,12.4304715 C14.5836309,12.4304715 14.5935152,12.4204977 14.5935152,12.40055 L14.5935152,12.40055 L14.5935152,11.7183392 C14.5935152,11.702381 14.5836309,11.694402 14.5638624,11.694402 L14.5638624,11.694402 L13.7750975,11.694402 L13.7750975,9.39642867 L12.8706867,9.39642867 L12.8706867,11.694402 L12.1115746,11.694402 C12.0918061,11.694402 12.0819218,11.702381 12.0819218,11.7183392 L12.0819218,11.7183392 L12.0819218,12.40055 C12.0819218,12.4204977 12.0918061,12.4304715 12.1115746,12.4304715 L12.1115746,12.4304715 L14.5638624,12.4304715 Z M12.1708803,12.4304715 C12.1906488,12.4304715 12.2005331,12.4204977 12.2005331,12.40055 L12.2005331,12.40055 L12.2005331,11.7183392 C12.2005331,11.702381 12.1906488,11.694402 12.1708803,11.694402 L12.1708803,11.694402 L11.3821154,11.694402 L11.3821154,10.5932898 C11.3821154,9.66971195 10.8048739,9.20792304 9.65039101,9.20792304 L9.65039101,9.20792304 L9.41909905,9.20792304 C9.55945571,8.99049328 9.78284025,8.77705305 10.0892527,8.56760236 C10.3956651,8.35815167 10.7248113,8.19956757 11.0766914,8.09185007 L11.0766914,8.09185007 L10.7445799,7.27200022 C10.2286209,7.45751369 9.77542704,7.72431398 9.38499832,8.07240108 C8.99456959,8.42048818 8.69260509,8.82293272 8.47910483,9.27973471 L8.47910483,9.27973471 L8.47910483,9.94399262 L9.51102278,9.94399262 C9.81941205,9.94399262 10.057623,10.00982 10.2256556,10.1414747 C10.3936882,10.2731294 10.4777045,10.4626324 10.4777045,10.7099837 L10.4777045,10.7099837 L10.4777045,11.694402 L8.10251408,11.694402 C8.08274554,11.694402 8.07286127,11.702381 8.07286127,11.7183392 L8.07286127,11.7183392 L8.07286127,12.40055 C8.07286127,12.4204977 8.08274554,12.4304715 8.10251408,12.4304715 L8.10251408,12.4304715 L12.1708803,12.4304715 Z M5.07792699,13.9026107 C5.66109901,13.9026107 6.0974896,13.8078592 6.38709875,13.6183562 C6.67670791,13.4288532 6.82151249,13.1535751 6.82151249,12.792522 C6.82151249,12.6389249 6.79037703,12.5052754 6.72810612,12.3915736 C6.66583521,12.2778718 6.57292306,12.1811255 6.44936966,12.1013347 C6.32581627,12.021544 6.13455562,11.9377637 5.8755877,11.8499939 C5.72336992,11.7981299 5.61217186,11.741279 5.54199354,11.6794412 C5.47181521,11.6176034 5.43672604,11.5447943 5.43672604,11.4610141 C5.43672604,11.3971815 5.47033257,11.3203829 5.53754561,11.2306183 C5.60475866,11.1408537 5.68778654,11.0620604 5.78662926,10.9942382 C5.88547197,10.9264161 5.96751143,10.892505 6.03274762,10.892505 C6.12961348,10.892505 6.2324099,10.937886 6.34113689,11.028648 C6.44986388,11.11941 6.60010481,11.2994378 6.79185967,11.5687316 C6.95396173,11.7981299 7.05675815,11.935769 7.10024895,11.9816486 C7.26432785,12.1571883 7.42297041,12.275877 7.57617662,12.3377148 C7.72938283,12.3995526 7.91471292,12.4304715 8.1321669,12.4304715 L8.1321669,12.4304715 L8.16181971,12.4304715 C8.18356511,12.4304715 8.19443781,12.4204977 8.19443781,12.40055 L8.19443781,12.40055 L8.19443781,11.7183392 C8.19443781,11.702381 8.18356511,11.694402 8.16181971,11.694402 L8.16181971,11.694402 L8.1321669,11.694402 C7.99971766,11.694402 7.87665848,11.6550053 7.76298935,11.5762119 C7.64932023,11.4974186 7.49957352,11.323375 7.31374921,11.0540813 C7.07850355,10.7149706 6.90898829,10.49405 6.80520344,10.3913195 C6.70141859,10.2885889 6.59417424,10.2117903 6.4834704,10.1609237 C6.37276656,10.1100571 6.25217845,10.0846238 6.12170606,10.0846238 C5.89832152,10.0846238 5.66505272,10.1649132 5.42189964,10.3254921 C5.17874656,10.486071 4.98056691,10.683553 4.8273607,10.9179383 C4.67415449,11.1523236 4.59755139,11.3762364 4.59755139,11.5896766 C4.59755139,11.8370279 4.66377601,12.0335126 4.79622525,12.1791307 C4.92867449,12.3247488 5.16490858,12.4414428 5.50492752,12.5292126 C5.65121474,12.569108 5.75747066,12.6134916 5.82369527,12.6623634 C5.88991989,12.7112352 5.9230322,12.7705796 5.9230322,12.8403965 C5.9230322,12.9580878 5.86323236,13.0418681 5.74363268,13.0917373 C5.62403299,13.1416065 5.40015424,13.1665411 5.07199642,13.1665411 L5.07199642,13.1665411 L4.02228678,13.1665411 C3.90169867,13.1665411 3.78506427,13.131134 3.67238357,13.0603197 C3.55970288,12.9895054 3.46926179,12.8917618 3.40106032,12.7670887 C3.33285884,12.6424157 3.29875811,12.5102623 3.29875811,12.3706285 C3.29875811,12.1432249 3.30715974,11.9537219 3.323963,11.8021195 C3.34076626,11.6505171 3.374867,11.4899382 3.42626521,11.3203829 L3.42626521,11.3203829 L2.61970865,11.3203829 C2.48923627,11.7113575 2.42400007,12.1063217 2.42400007,12.5052754 C2.42400007,12.7725743 2.4758925,13.0129439 2.57967735,13.2263842 C2.6834622,13.4398244 2.82925521,13.6058889 3.01705637,13.7245776 C3.20485753,13.8432663 3.41440408,13.9026107 3.64569604,13.9026107 L3.64569604,13.9026107 L5.07792699,13.9026107 Z M4.11717579,15.41664 C4.2377639,15.41664 4.33462977,15.3782407 4.40777337,15.3014421 C4.48091698,15.2246435 4.51748879,15.1164273 4.51748879,14.9767935 C4.51748879,14.8371597 4.48190541,14.7284449 4.41073866,14.6506489 C4.3395719,14.5728529 4.24171761,14.5339549 4.11717579,14.5339549 C3.99065711,14.5339549 3.89132019,14.5733516 3.819165,14.652145 C3.74700982,14.7309383 3.71093223,14.8391545 3.71093223,14.9767935 C3.71093223,15.1124378 3.74750403,15.2196566 3.82064764,15.2984499 C3.89379125,15.3772433 3.99263397,15.41664 4.11717579,15.41664 Z M5.14909374,15.41664 C5.26968185,15.41664 5.36704193,15.3772433 5.44117397,15.2984499 C5.515306,15.2196566 5.55237202,15.1124378 5.55237202,14.9767935 C5.55237202,14.8391545 5.51678864,14.7309383 5.44562189,14.652145 C5.37445513,14.5733516 5.27561242,14.5339549 5.14909374,14.5339549 C5.02257507,14.5339549 4.92323814,14.5733516 4.85108295,14.652145 C4.77892777,14.7309383 4.74285018,14.8391545 4.74285018,14.9767935 C4.74285018,15.1124378 4.77942198,15.2196566 4.85256559,15.2984499 C4.9257092,15.3772433 5.02455192,15.41664 5.14909374,15.41664 Z" id="بنكي"></path>
                    </g>
                    <g id="sort-(1)" transform="translate(25.724001, 8.136000) rotate(-270.000000) translate(-25.724001, -8.136000) translate(21.224001, 1.136000)">
                        <path d="M8.78097476,2.39754346 L6.54702513,0.163567639 C6.54692041,0.163462922 6.54681569,0.163410564 6.54673716,0.163305847 C6.53380463,0.150399502 6.52024381,0.138173815 6.50610704,0.12657643 C6.49964078,0.121262052 6.49283418,0.116654513 6.48618467,0.111680465 C6.47825237,0.105737787 6.47047715,0.0995856752 6.46220452,0.0940618641 C6.45424604,0.0887474866 6.4459996,0.0841399474 6.43783169,0.0792706163 C6.43034443,0.0747939732 6.42304044,0.0701078965 6.41534375,0.0659715829 C6.40701877,0.061521119 6.39848435,0.0577513143 6.38997611,0.0537458967 C6.38193909,0.0499499128 6.37403298,0.0459444953 6.36581271,0.0425150201 C6.35756626,0.0391117242 6.34913656,0.036336729 6.34075921,0.0333523003 C6.33193682,0.0301846171 6.32324533,0.0268075004 6.31423968,0.0240848636 C6.30586234,0.0215454813 6.29732792,0.0196867581 6.28887204,0.0175662429 C6.27968314,0.0152362942 6.27059896,0.0126707326 6.26125298,0.0108120094 C6.25143578,0.00887474866 6.24154005,0.00769668468 6.23167049,0.0062830079 C6.22352876,0.00513112312 6.21551792,0.00356037114 6.2072453,0.00274881596 C6.17059442,-0.000863913586 6.13365557,-0.000863913586 6.09700469,0.00274881596 C6.08875824,0.00356037114 6.0807474,0.00510494392 6.07257949,0.0062830079 C6.06270993,0.00769668468 6.05278802,0.00884856946 6.042997,0.0108120094 C6.03362484,0.0126707326 6.02456684,0.0152362942 6.01537794,0.0175662429 C6.00689588,0.0196867581 5.99838764,0.0215454813 5.9900103,0.0240848636 C5.98100465,0.0268075004 5.97228698,0.0301846171 5.96349077,0.0333523003 C5.95511342,0.0363629082 5.94668372,0.0391117242 5.93843727,0.0425150201 C5.93019083,0.0459183161 5.92231089,0.0499499128 5.91427387,0.0537458967 C5.90579181,0.0577513143 5.89723121,0.061521119 5.88890623,0.0659715829 C5.88120954,0.0701078965 5.87390555,0.0747939732 5.8664183,0.0792706163 C5.85825039,0.0841399474 5.85000394,0.0887474866 5.84204546,0.0940618641 C5.83377283,0.0995856752 5.82602379,0.105737787 5.81806531,0.111680465 C5.8114158,0.116654513 5.80460921,0.121262052 5.79814294,0.12657643 C5.78400618,0.138173815 5.77041917,0.150399502 5.75751283,0.163305847 C5.75740811,0.163410564 5.75730339,0.163462922 5.75722485,0.163567639 L3.52327522,2.39751728 C3.30517631,2.61561619 3.30517631,2.96924482 3.52327522,3.18734373 C3.74137413,3.40544264 4.09500276,3.40544264 4.31310167,3.18734373 L5.59365722,1.90678818 L5.59365722,8.37734387 C5.59365722,8.68578719 5.84369475,8.93582473 6.15213808,8.93582473 C6.46058141,8.93582473 6.71061894,8.68578719 6.71061894,8.37734387 L6.71061894,1.90681436 L7.99117449,3.18736991 C8.2092734,3.40546882 8.56290203,3.40546882 8.78100094,3.18736991 C8.99907368,2.96924482 8.99907368,2.61564237 8.78097476,2.39754346 Z" id="Path"></path>
                        <path d="M4.64021077,10.2163803 L3.35965522,11.4969358 L3.35965522,5.02640632 C3.35965522,4.71796299 3.10961768,4.46792545 2.80117435,4.46792545 C2.49273103,4.46792545 2.24269349,4.71796299 2.24269349,5.02640632 L2.24269349,11.4969358 L0.962137943,10.2163803 C0.744039031,9.99828137 0.390410403,9.99828137 0.172311492,10.2163803 C-0.0457874201,10.4344792 -0.0457874201,10.7881078 0.172311492,11.0062067 L2.40626113,13.2401564 C2.40636585,13.2402611 2.40647056,13.2403396 2.40657528,13.2404443 C2.41948163,13.2533245 2.43306863,13.2655502 2.44717922,13.2771476 C2.45364548,13.282462 2.46047825,13.2870695 2.46712777,13.2920697 C2.47506007,13.2980124 2.48283529,13.3041645 2.49108174,13.3096883 C2.49904021,13.3150027 2.50728666,13.3196102 2.51545457,13.3244796 C2.52294182,13.3289562 2.53024582,13.3336423 2.5379425,13.3377524 C2.54626749,13.3422029 2.55482809,13.3459727 2.56333633,13.3499781 C2.57134716,13.3537741 2.57925328,13.3577795 2.58747355,13.3611828 C2.59572,13.3645861 2.6041497,13.3673611 2.61252704,13.3703455 C2.62134943,13.3735132 2.63004093,13.3768903 2.63904657,13.379613 C2.64742392,13.3821523 2.65593216,13.3840111 2.66441422,13.3861316 C2.67360312,13.3884615 2.6826873,13.3910271 2.69205945,13.3928858 C2.70187665,13.3948231 2.71177239,13.395975 2.72164195,13.3973886 C2.72978368,13.3985405 2.73782069,13.4001113 2.74606714,13.4009228 C2.78271802,13.4045356 2.81965687,13.4045356 2.85630775,13.4009228 C2.8645542,13.4001113 2.87256503,13.3985667 2.88073294,13.3973886 C2.8906025,13.395975 2.90052442,13.3948231 2.91031544,13.3928596 C2.91968759,13.3910009 2.92874559,13.3884354 2.93793449,13.3861054 C2.94641655,13.3839849 2.95492479,13.3821262 2.96330214,13.3795868 C2.97230778,13.3768641 2.98102546,13.373487 2.98982167,13.3703193 C2.99819901,13.3673087 3.00662871,13.3645599 3.01487516,13.3611566 C3.02309543,13.3577533 3.03097537,13.3537479 3.0389862,13.3499519 C3.04749444,13.3459465 3.05608122,13.3421767 3.06440621,13.3377001 C3.07207671,13.3335899 3.07938071,13.3289039 3.08684178,13.3244534 C3.09500969,13.3195841 3.10328232,13.3149503 3.11124079,13.309636 C3.11948724,13.3041122 3.12723629,13.2979862 3.1351424,13.2920697 C3.1418181,13.2870695 3.14865087,13.2824358 3.15514331,13.2771214 C3.16914918,13.2656287 3.18263147,13.2534816 3.19545928,13.24068 C3.19566871,13.2404967 3.19587815,13.2403134 3.1960614,13.2401302 L5.43001104,11.0061805 C5.64810995,10.7880816 5.64810995,10.434453 5.43001104,10.2163541 C5.21191213,9.99825519 4.85833586,9.99828137 4.64021077,10.2163803 Z" id="Path"></path>
                    </g>
                </g>
            </g>
        </g>
    </g>
</svg>