<?xml version="1.0" encoding="UTF-8"?>
<svg width="43px" height="26px" viewBox="0 0 43 26" version="1.1" xmlns="http://www.w3.org/2000/svg" xmlns:xlink="http://www.w3.org/1999/xlink">
    <!-- Generator: sketchtool 61.2 (101010) - https://sketch.com -->
    <title>B0D7D3FC-2A67-4CD8-8602-8E05DDCCCB9B</title>
    <desc>Created with sketchtool.</desc>
    <g id="Page-1" stroke="none" stroke-width="1" fill="none" fill-rule="evenodd">
        <g id="Home-Page---Banner" transform="translate(-1045.000000, -472.000000)">
            <g id="Visa-dark" transform="translate(1045.000000, 472.000000)">
                <rect id="Rectangle" fill="#FFFFFF" x="0" y="0" width="42.4200013" height="25.4520008" rx="1.70649601"></rect>
                <polyline id="Fill-3" fill="#26337A" points="17.6000546 16.7757363 18.9043582 8.68450945 20.9892407 8.68450945 19.6850563 16.7757363 17.6000546 16.7757363"></polyline>
                <path d="M27.2475847,8.88310675 C26.8353542,8.72071581 26.1870182,8.54362724 25.3793707,8.54362724 C23.3180988,8.54362724 21.8671236,9.64164807 21.8550798,11.2139365 C21.8419629,12.3769614 22.8904856,13.0255692 23.6809618,13.412129 C24.4933791,13.8083676 24.7663313,14.0619317 24.7631117,14.4162283 C24.7575072,14.9581289 24.1146565,15.2064353 23.515211,15.2064353 C22.6804949,15.2064353 22.2370221,15.084194 21.5513624,14.7821158 L21.28318,14.6533024 L20.9916256,16.4644572 C21.4777881,16.6898209 22.3790431,16.8854309 23.3144022,16.8957073 C25.5050551,16.8957073 26.9284846,15.8109502 26.945179,14.1319546 C26.9526914,13.2097079 26.3971282,12.5106741 25.1939445,11.9335231 C24.4653565,11.5583152 24.0181871,11.3097698 24.0233147,10.9300212 C24.0237917,10.593768 24.4010834,10.2337357 25.2176742,10.2337357 C25.8996373,10.2227423 26.3933123,10.3802341 26.7779972,10.5446564 L26.9652121,10.6371439 L27.2475847,8.88310675" id="Fill-4" fill="#26337A"></path>
                <path d="M30.0237314,13.9070688 C30.1965176,13.4420022 30.8542739,11.6454255 30.8542739,11.6454255 C30.8421109,11.6668148 31.0261062,11.1767741 31.1313997,10.873501 L31.272109,11.5713399 C31.272109,11.5713399 31.6721765,13.5025851 31.7545749,13.9070688 L30.0237314,13.9070688 L30.0237314,13.9070688 Z M32.5958496,8.69275446 L30.9846089,8.69275446 C30.4848524,8.69275446 30.1107803,8.83590703 29.8918462,9.36346845 L26.7956455,16.7786042 L28.9854637,16.7786042 C28.9854637,16.7786042 29.3427222,15.7810769 29.4238089,15.5621658 C29.662657,15.5621658 31.7904677,15.5663481 32.0941852,15.5663481 C32.1566696,15.8487099 32.3480581,16.7786042 32.3480581,16.7786042 L34.2831687,16.7786042 L32.5958496,8.69275446 L32.5958496,8.69275446 Z" id="Fill-5" fill="#26337A"></path>
                <path d="M15.8509665,8.69132054 L13.810324,14.2075936 L13.5917477,13.0862717 C13.2114748,11.7943138 12.0277281,10.3939758 10.7036298,9.69231308 L12.5705321,16.7686863 L14.7770446,16.7673718 L18.060341,8.69132054 L15.8509665,8.69132054" id="Fill-6" fill="#26337A"></path>
                <path d="M11.9159953,8.68582387 L8.55387792,8.68582387 L8.52621305,8.85347249 C11.1423327,9.52370851 12.8732955,11.1415237 13.5917477,13.0862717 L12.8611325,9.36848716 C12.7350904,8.85574286 12.3687692,8.70374781 11.9159953,8.68582387" id="Fill-7" fill="#EC982D"></path>
            </g>
        </g>
    </g>
</svg>