<?xml version="1.0" encoding="UTF-8"?>
<svg width="43px" height="26px" viewBox="0 0 43 26" version="1.1" xmlns="http://www.w3.org/2000/svg" xmlns:xlink="http://www.w3.org/1999/xlink">
    <!-- Generator: sketchtool 61.2 (101010) - https://sketch.com -->
    <title>5EDBB6E1-408C-4A20-A389-3F595A21723A@1</title>
    <desc>Created with sketchtool.</desc>
    <g id="Page-1" stroke="none" stroke-width="1" fill="none" fill-rule="evenodd">
        <g id="Home-Page---Banner" transform="translate(-1155.000000, -472.000000)">
            <g id="Mada" transform="translate(1155.000000, 472.000000)">
                <rect id="Rectangle" fill="#FFFFFF" transform="translate(21.210001, 12.726000) scale(1, -1) translate(-21.210001, -12.726000) " x="0" y="0" width="42.4200013" height="25.4520008" rx="1.70649601"></rect>
                <g id="Mada-01" transform="translate(7.000000, 8.000000)" fill-rule="nonzero">
                    <rect id="Rectangle" fill="#84B740" x="0.00360000014" y="5.54040022" width="12.1248005" height="4.03920016"></rect>
                    <rect id="Rectangle" fill="#259BD6" x="0.00360000014" y="0.0288000011" width="12.1248005" height="4.04280016"></rect>
                    <path d="M24.253201,8.75880035 L24.199201,8.76960035 C24.012001,8.80560035 23.943601,8.82000035 23.8068009,8.82000035 C23.4900009,8.82000035 23.1156009,8.65800034 23.1156009,7.89480031 C23.1156009,7.5024003 23.1804009,6.98040028 23.7708009,6.98040028 L23.7744009,6.98040028 C23.8752009,6.98760028 23.990401,6.99840028 24.206401,7.06320028 L24.253201,7.07760028 L24.253201,8.75880035 Z M24.350401,4.9536002 L24.253201,4.9716002 L24.253201,6.38280025 L24.166801,6.35760025 L24.141601,6.35040025 C24.044401,6.32160025 23.8212009,6.25680025 23.6052009,6.25680025 C22.4244009,6.25680025 22.1760009,7.14960028 22.1760009,7.89840031 C22.1760009,8.92440035 22.7520009,9.51480038 23.7564009,9.51480038 C24.181201,9.51480038 24.494401,9.47160038 24.811201,9.36720037 C25.102801,9.27360037 25.207201,9.14040036 25.207201,8.85600035 L25.207201,4.80600019 C24.926401,4.85640019 24.634801,4.90680019 24.350401,4.9536002" id="Shape" fill="#27292D"></path>
                    <path d="M27.7632011,8.78400035 L27.7128011,8.79840035 L27.5328011,8.84520035 C27.3636011,8.88840035 27.2124011,8.91360035 27.0972011,8.91360035 C26.8200011,8.91360035 26.6544011,8.77680035 26.6544011,8.54280034 C26.6544011,8.39160033 26.7228011,8.13600032 27.1764011,8.13600032 L27.7632011,8.13600032 L27.7632011,8.78400035 Z M27.3492011,6.23880025 C26.9856011,6.23880025 26.6112011,6.30360025 26.146801,6.44760026 L25.844401,6.53760026 L25.945201,7.22160029 L26.240401,7.12440028 C26.5500011,7.02360028 26.9352011,6.95880028 27.2232011,6.95880028 C27.3528011,6.95880028 27.7488011,6.95880028 27.7488011,7.38720029 L27.7488011,7.5744003 L27.1980011,7.5744003 C26.193601,7.5744003 25.729201,7.89480031 25.729201,8.58240034 C25.729201,9.16920036 26.157601,9.52200038 26.8776011,9.52200038 C27.1008011,9.52200038 27.4104011,9.47880038 27.6768011,9.41400037 L27.6912011,9.41040037 L27.7056011,9.41400037 L27.7956011,9.42840037 C28.0764011,9.47880038 28.3680011,9.52920038 28.6524011,9.58320038 L28.6524011,7.33680029 C28.6524011,6.60960026 28.2132011,6.23880025 27.3492011,6.23880025" id="Shape" fill="#27292D"></path>
                    <path d="M20.7684008,8.78400035 L20.7180008,8.79840035 L20.5380008,8.84520035 C20.3688008,8.88840035 20.2212008,8.91360035 20.1024008,8.91360035 C19.8252008,8.91360035 19.6596008,8.77680035 19.6596008,8.54280034 C19.6596008,8.39160033 19.7280008,8.13600032 20.1780008,8.13600032 L20.7648008,8.13600032 L20.7648008,8.78400035 L20.7684008,8.78400035 Z M20.3580008,6.23880025 C19.9908008,6.23880025 19.6200008,6.30360025 19.1556008,6.44760026 L18.8532007,6.53760026 L18.9540008,7.22160029 L19.2492008,7.12440028 C19.5588008,7.02360028 19.9440008,6.95880028 20.2320008,6.95880028 C20.3616008,6.95880028 20.7576008,6.95880028 20.7576008,7.38720029 L20.7576008,7.5744003 L20.2068008,7.5744003 C19.2024008,7.5744003 18.7344007,7.89480031 18.7344007,8.58240034 C18.7344007,9.16920036 19.1628008,9.52200038 19.8864008,9.52200038 C20.1096008,9.52200038 20.4192008,9.47880038 20.6856008,9.41400037 L20.7000008,9.41040037 L20.7144008,9.41400037 L20.8008008,9.42840037 C21.0852008,9.47880038 21.3732008,9.52920038 21.6576228,9.58680038 L21.6576228,7.34040029 C21.6612009,6.60600026 21.2220008,6.23880025 20.3580008,6.23880025" id="Shape" fill="#27292D"></path>
                    <path d="M16.9776007,6.24600025 C16.5204007,6.24600025 16.1424006,6.39720025 16.0020006,6.46200026 L15.9660006,6.48000026 L15.9336006,6.45480026 C15.7392006,6.31440025 15.4548006,6.24240025 15.0588006,6.24240025 C14.7096006,6.24240025 14.3820006,6.29280025 14.0256006,6.39720025 C13.7196005,6.49080026 13.6008005,6.63840026 13.6008005,6.91560027 L13.6008005,9.48240038 L14.5584006,9.48240038 L14.5584006,7.11000028 L14.6052006,7.09560028 C14.7996006,7.03080028 14.9148006,7.02000028 15.0264006,7.02000028 C15.3036006,7.02000028 15.4440006,7.16760028 15.4440006,7.4556003 L15.4440006,9.48600038 L16.3872007,9.48600038 L16.3872007,7.41600029 C16.3872007,7.29360029 16.3620007,7.22160029 16.3584007,7.20720029 L16.3260006,7.14600028 L16.3908007,7.11720028 C16.5348007,7.05240028 16.6932007,7.02000028 16.8588007,7.02000028 C17.0496007,7.02000028 17.2764007,7.09560028 17.2764007,7.4556003 L17.2764007,9.48600038 L18.2160007,9.48600038 L18.2160007,7.36200029 C18.2160007,6.60960026 17.8128007,6.24600025 16.9776007,6.24600025" id="Path" fill="#27292D"></path>
                    <path d="M27.0576011,2.66400011 C26.9172011,2.66400011 26.6832011,2.64960011 26.4996011,2.6136001 L26.4456011,2.6028001 L26.4456011,1.21680005 C26.4456011,1.10160004 26.424001,1.02960004 26.420401,1.01880004 L26.391601,0.961200038 L26.4528011,0.936000037 C26.4672011,0.928800037 26.4816011,0.925200037 26.4996011,0.918000036 L26.5104011,0.910800036 C26.5320011,0.903600036 26.5536011,0.896400036 26.5752011,0.889200035 C26.5860011,0.885600035 26.5932011,0.882000035 26.6004011,0.882000035 C26.8128011,0.824400033 27.0072011,0.831600033 27.0936011,0.824400033 L27.0972011,0.824400033 C27.6840011,0.824400033 27.7524011,1.34640005 27.7524011,1.73880007 C27.7488011,2.5020001 27.3708011,2.66400011 27.0576011,2.66400011 M27.0540011,0.0288000011 C27.0468011,0.0288000011 27.0360011,0.0288000011 27.0288011,0.0288000011 C26.4780011,0.0288000011 25.912801,0.180000007 25.711201,0.475200019 C25.603201,0.619200025 25.542001,0.799200032 25.538401,1.01160004 L25.538401,1.01160004 L25.538401,2.4408001 C25.538401,2.5632001 25.513201,2.6100001 25.509601,2.6208001 L25.477201,2.68200011 L23.7384009,2.68200011 L23.7384009,1.68840007 L23.7348009,1.68840007 C23.7132009,0.640800025 23.0940009,0.0648000026 22.1976009,0.0648000026 L22.0932009,0.0648000026 L21.3228008,0.0648000026 C21.2868008,0.320400013 21.2580008,0.50040002 21.2220008,0.75600003 L22.0932009,0.75600003 C22.5504009,0.75600003 22.7916009,1.14480005 22.7916009,1.74240007 L22.7916009,2.74320011 L22.7304009,2.71080011 C22.7196009,2.70720011 22.6440009,2.68200011 22.5252009,2.68200011 L21.0204008,2.68200011 C20.9916008,2.87280011 20.9556008,3.12120012 20.9160008,3.36960013 L25.542001,3.36960013 C25.700401,3.33720013 25.884001,3.30840013 26.042401,3.28320013 C26.276401,3.39840014 26.7120011,3.45960014 27.0108011,3.45960014 C28.0152011,3.45960014 28.6668011,2.78640011 28.6668011,1.74960007 C28.6632011,0.723600029 28.0332011,0.050400002 27.0540011,0.0288000011" id="Shape" fill="#27292D"></path>
                    <path d="M18.9432008,3.79080015 L18.9864008,3.79080015 C19.9908008,3.79080015 20.4588008,3.45960014 20.4588008,2.6424001 C20.4588008,2.05560008 20.0304008,1.58760006 19.3104008,1.58760006 L18.3852007,1.58760006 C18.1080007,1.58760006 17.9424007,1.42920006 17.9424007,1.16280005 C17.9424007,0.982800039 18.0108007,0.75960003 18.4644007,0.75960003 L20.4876008,0.75960003 C20.5308008,0.49680002 20.5524008,0.331200013 20.5920008,0.0684000027 L18.4896007,0.0684000027 C17.5104007,0.0684000027 17.0172007,0.478800019 17.0172007,1.16280005 C17.0172007,1.83960007 17.4456007,2.19240009 18.1656007,2.19240009 L19.0908008,2.19240009 C19.3680008,2.19240009 19.5336008,2.4120001 19.5336008,2.6424001 C19.5336008,2.79360011 19.4652008,3.10680012 19.0152008,3.10680012 L18.8604007,3.10680012 L15.8976006,3.09960012 L15.8976006,3.09960012 L15.3576006,3.09960012 C14.9004006,3.09960012 14.5800006,2.84040011 14.5800006,2.23920009 L14.5800006,1.82520007 C14.5800006,1.19880005 14.8284006,0.810000032 15.3576006,0.810000032 L16.2360006,0.810000032 C16.2756006,0.543600022 16.3008006,0.374400015 16.3368006,0.122400005 L15.2424006,0.122400005 L15.1380006,0.122400005 C14.2416006,0.122400005 13.6224005,0.723600029 13.6008005,1.77120007 L13.6008005,1.77120007 L13.6008005,1.81080007 L13.6008005,2.23920009 C13.6224005,3.28680013 14.2416006,3.78720015 15.1380006,3.78720015 L15.2424006,3.78720015 L16.0128006,3.78720015 L17.6184007,3.79080015 L17.6184007,3.79080015 L18.5760007,3.79080015 L18.9432008,3.79080015 L18.9432008,3.79080015 Z" id="Path" fill="#27292D"></path>
                </g>
            </g>
        </g>
    </g>
</svg>