<?xml version="1.0" encoding="UTF-8"?>
<svg width="43px" height="26px" viewBox="0 0 43 26" version="1.1" xmlns="http://www.w3.org/2000/svg" xmlns:xlink="http://www.w3.org/1999/xlink">
    <!-- Generator: sketchtool 61.2 (101010) - https://sketch.com -->
    <title>D1F92936-4BCB-4523-BCA2-71A5DB6539C9</title>
    <desc>Created with sketchtool.</desc>
    <g id="Page-1" stroke="none" stroke-width="1" fill="none" fill-rule="evenodd">
        <g id="Home-Page---Banner" transform="translate(-990.000000, -472.000000)">
            <g id="Group-12" transform="translate(842.000000, 143.000000)">
                <g id="Group-21" transform="translate(38.000000, 329.000000)">
                    <g id="MasterCard-dark" transform="translate(110.000000, 0.000000)">
                        <rect id="Rectangle" fill="#FFFFFF" x="0" y="0" width="42.4200013" height="25.4520008" rx="1.70649601"></rect>
                        <g id="mc_acc" transform="translate(9.696000, 4.848000)">
                            <path d="M4.29335606,16.7005701 L4.29335606,15.5939613 C4.31010577,15.407918 4.24055079,15.2241686 4.10273567,15.090383 C3.96492055,14.9565974 3.77242748,14.8859606 3.57519468,14.8967978 C3.31257411,14.8809234 3.06151854,15.0009695 2.91948212,15.210337 C2.78994806,15.007217 2.55352704,14.8870137 2.30280007,14.8967978 C2.08062861,14.8843525 1.86764597,14.9821997 1.74076073,15.1550065 L1.74076073,14.9392178 L1.35631021,14.9392178 L1.35631021,16.7042588 L1.73490615,16.7042588 L1.73490615,15.6898674 C1.7209268,15.5659557 1.76530458,15.4425024 1.8562582,15.3522815 C1.94721183,15.2620607 2.07554029,15.2141991 2.20717532,15.2214031 C2.47648584,15.2214031 2.62870483,15.3873944 2.62870483,15.6861787 L2.62870483,16.7024144 L3.00730077,16.7024144 L3.00730077,15.6898674 C2.99401193,15.5661048 3.03862178,15.443035 3.12941787,15.3529704 C3.22021397,15.2629058 3.34812587,15.2148438 3.47956994,15.2214031 C3.75668655,15.2214031 3.90500249,15.3873944 3.90500249,15.6861787 L3.90500249,16.7024144 L4.29335606,16.7005701 Z M10.3743095,14.9392178 L9.6951786,14.9392178 L9.6951786,14.404357 L9.31463113,14.404357 L9.31463113,14.9392178 L8.92432603,14.9392178 L8.92432603,15.2601344 L9.31463113,15.2601344 L9.31463113,16.095624 C9.31463113,16.5050692 9.46685012,16.7485266 9.94692539,16.7485266 C10.1262674,16.7489926 10.3021198,16.701691 10.454322,16.6120414 L10.3372305,16.2985022 C10.228375,16.3598655 10.1048293,16.3941322 9.97814979,16.398097 C9.78299725,16.398097 9.69322707,16.2800588 9.69322707,16.1030014 L9.69322707,15.2564457 L10.3723579,15.2564457 L10.3743095,14.9392178 Z M13.8402187,14.8949535 C13.6348709,14.8909495 13.4423205,14.9889363 13.3328221,15.1531622 L13.3328221,14.9392178 L12.9620323,14.9392178 L12.9620323,16.7042588 L13.3367251,16.7042588 L13.3367251,15.7083109 C13.3367251,15.4169039 13.4850411,15.2287805 13.7504486,15.2287805 C13.8372688,15.2276581 13.9234737,15.2426988 14.0041469,15.2730448 L14.1290445,14.9392178 C14.0363416,14.9078757 13.9386742,14.8916602 13.8402187,14.8912648 L13.8402187,14.8949535 Z M8.6003728,15.0793883 C8.37056263,14.9503763 8.10641995,14.8863671 7.83927786,14.8949535 C7.3670087,14.8949535 7.07818293,15.1052092 7.07818293,15.4482579 C7.07818293,15.7359761 7.28894768,15.9093448 7.70657413,15.9646753 L7.90172668,15.9904961 C8.12420059,16.0200057 8.24519517,16.0937796 8.24519517,16.1933744 C8.24519517,16.3298561 8.08126702,16.4183848 7.80415041,16.4183848 C7.5810556,16.425806 7.36201352,16.3607078 7.1835653,16.2339501 L6.98841275,16.5106022 C7.22625885,16.6638826 7.50850202,16.7437764 7.7963443,16.7393014 C8.33496534,16.7393014 8.63354874,16.5032248 8.63354874,16.1675535 C8.63354874,15.8318822 8.40522025,15.7046222 8.00125448,15.6492918 L7.80610193,15.6234709 C7.63046464,15.6013387 7.4743426,15.549697 7.4743426,15.4390361 C7.4743426,15.3283752 7.62265854,15.2214031 7.84513244,15.2214031 C8.05074775,15.2237426 8.25230327,15.2758088 8.43059009,15.3726396 L8.6003728,15.0793883 Z M14.2597967,15.8171274 C14.2467997,16.0652652 14.3454226,16.3070285 14.531306,16.4827033 C14.7171895,16.6583781 14.973002,16.7515846 15.2355594,16.7393014 C15.4792813,16.7510203 15.7188028,16.6760034 15.9068842,16.5290457 L15.7117317,16.2523935 C15.5713449,16.3534039 15.4002798,16.4090184 15.2238503,16.4110075 C14.897609,16.3813276 14.6486128,16.1222659 14.6486128,15.8125166 C14.6486128,15.5027672 14.897609,15.2437056 15.2238503,15.2140257 C15.4002798,15.2160147 15.5713449,15.2716292 15.7117317,15.3726396 L15.9068842,15.0959874 C15.7188028,14.9490298 15.4792813,14.8740128 15.2355594,14.8857318 C14.973002,14.8734486 14.7171895,14.9666551 14.531306,15.1423298 C14.3454226,15.3180046 14.2467997,15.5597679 14.2597967,15.8079057 L14.2597967,15.8171274 Z M11.6330434,14.8949535 C11.0866163,14.8949535 10.7099718,15.2638231 10.7099718,15.8171274 C10.6938298,16.0618554 10.7878776,16.3016326 10.9689058,16.4772857 C11.1499341,16.6529389 11.40108,16.748106 11.6603648,16.7393014 C11.9388066,16.7483825 12.2110676,16.660425 12.4253627,16.4921588 L12.2302102,16.2302614 C12.0760367,16.3469357 11.8851734,16.411821 11.6876861,16.4146961 C11.404358,16.4245094 11.1598277,16.2285936 11.1236953,15.9628309 L12.519036,15.9628309 C12.519036,15.9148779 12.519036,15.8669248 12.519036,15.8152831 C12.519036,15.2619787 12.1638583,14.8931091 11.638898,14.8931091 L11.6330434,14.8949535 Z M11.6330434,15.2232474 C11.7613404,15.2192663 11.8859037,15.2644082 11.9784907,15.348438 C12.0710777,15.4324679 12.1238448,15.5482669 12.1248278,15.6695796 L11.1236953,15.6695796 C11.1384105,15.4131409 11.367304,15.2148451 11.638898,15.2232474 L11.6330434,15.2232474 Z M6.57664088,15.8189718 L6.57664088,14.9392178 L6.20194798,14.9392178 L6.20194798,15.1531622 C6.05477696,14.9816008 5.83047105,14.8858647 5.59697508,14.8949535 C5.05538171,14.8949535 4.61633353,15.3098892 4.61633353,15.8217383 C4.61633353,16.3335874 5.05538171,16.7485231 5.59697508,16.7485231 C5.83047105,16.7576119 6.05477696,16.6618758 6.20194798,16.4903144 L6.20194798,16.7042588 L6.57664088,16.7042588 L6.57664088,15.8189718 Z M5.06420863,15.8189718 C5.05110857,15.6647202 5.10695736,15.5123329 5.21820376,15.3987852 C5.32945016,15.2852375 5.48592693,15.220907 5.64966627,15.2214002 C5.97590756,15.2510829 6.22490378,15.5101446 6.22490378,15.819894 C6.22490378,16.1296433 5.97590756,16.388705 5.64966627,16.4183877 C5.48592693,16.4188809 5.32945016,16.3545505 5.21820376,16.2410028 C5.10695736,16.1274551 5.05110857,15.9750677 5.06420863,15.8208161 L5.06420863,15.8189718 Z M19.4840304,14.8967978 C19.2786826,14.8927938 19.0861322,14.9907807 18.9766338,15.1550065 L18.9766338,14.9392178 L18.605844,14.9392178 L18.605844,16.7042588 L18.9805368,16.7042588 L18.9805368,15.7083109 C18.9805368,15.4169039 19.1288528,15.2287805 19.3942602,15.2287805 C19.4810805,15.2276581 19.5672854,15.2426988 19.6479586,15.2730448 L19.7728562,14.9410622 C19.6801533,14.9097201 19.5824859,14.8935046 19.4840304,14.8931091 L19.4840304,14.8967978 Z M22.4932827,16.4497388 C22.5186551,16.449445 22.5438445,16.4538303 22.5674407,16.4626492 C22.5898525,16.4712926 22.6103673,16.483801 22.627938,16.4995362 C22.6450859,16.5154384 22.6589795,16.5341963 22.66892,16.5548666 C22.688896,16.5984019 22.688896,16.647813 22.66892,16.6913483 C22.6589795,16.7120186 22.6450859,16.7307765 22.627938,16.7466788 C22.6103673,16.7624139 22.5898525,16.7749224 22.5674407,16.7835657 C22.5440775,16.7933085 22.5188192,16.798334 22.4932827,16.7983205 C22.4177684,16.7977826 22.3493602,16.7561185 22.3176454,16.6913483 C22.2979007,16.6477679 22.2979007,16.598447 22.3176454,16.5548666 C22.327586,16.5341963 22.3414796,16.5154384 22.3586275,16.4995362 C22.3761981,16.483801 22.3967129,16.4712926 22.4191247,16.4626492 C22.4423102,16.4519268 22.467516,16.445658 22.4932827,16.4442057 L22.4932827,16.4497388 Z M22.4932827,16.761436 C22.5127608,16.7615454 22.5320449,16.7577747 22.549877,16.7503675 C22.5666444,16.7432449 22.5818647,16.7332383 22.594762,16.7208579 C22.6453645,16.66868 22.6453645,16.588601 22.594762,16.5364231 C22.5819252,16.5239751 22.5666905,16.5139591 22.549877,16.5069135 C22.5320449,16.4995063 22.5127608,16.4957356 22.4932827,16.495845 C22.4738217,16.4958946 22.4545716,16.4996586 22.4366885,16.5069135 C22.4191549,16.5137081 22.4032319,16.5237405 22.3898519,16.5364231 C22.3392494,16.588601 22.3392494,16.66868 22.3898519,16.7208579 C22.4032967,16.7334658 22.419203,16.7434876 22.4366885,16.7503675 C22.4548452,16.7563638 22.4740864,16.758872 22.4932827,16.7577449 L22.4932827,16.761436 Z M22.5049919,16.5419562 C22.5232096,16.5411212 22.5411616,16.5463415 22.5557315,16.5567109 C22.567851,16.5661901 22.5743904,16.5806107 22.5732953,16.5954422 C22.5738618,16.607828 22.5689064,16.6198706 22.5596346,16.6286405 C22.5483232,16.6383502 22.5338933,16.6441948 22.5186525,16.6452396 L22.5752468,16.7061031 L22.5303617,16.7061031 L22.4776705,16.6452396 L22.4601068,16.6452396 L22.4601068,16.7061031 L22.4230278,16.7061031 L22.4230278,16.5438005 L22.5049919,16.5419562 Z M22.4620583,16.5733101 L22.4620583,16.6175744 L22.5049919,16.6175744 C22.5126318,16.6197271 22.5207702,16.6197271 22.5284102,16.6175744 C22.5311936,16.612354 22.5311936,16.6061957 22.5284102,16.6009753 C22.5311936,16.5957549 22.5311936,16.5895965 22.5284102,16.5843762 C22.5207549,16.5823253 22.5126472,16.5823253 22.5049919,16.5843762 L22.4620583,16.5733101 Z M18.0457561,15.8226605 L18.0457561,14.9392178 L17.6710632,14.9392178 L17.6710632,15.1531622 C17.5238922,14.9816008 17.2995863,14.8858647 17.0660903,14.8949535 C16.524497,14.8949535 16.0854488,15.3098892 16.0854488,15.8217383 C16.0854488,16.3335874 16.524497,16.7485231 17.0660903,16.7485231 C17.2995863,16.7576119 17.5238922,16.6618758 17.6710632,16.4903144 L17.6710632,16.7042588 L18.0457561,16.7042588 L18.0457561,15.8226605 Z M16.5333239,15.8226605 C16.5202238,15.6684089 16.5760726,15.5160216 16.687319,15.4024739 C16.7985654,15.2889262 16.9550422,15.2245957 17.1187815,15.2250889 C17.4450228,15.2547716 17.694019,15.5138333 17.694019,15.8235827 C17.694019,16.133332 17.4450228,16.3923937 17.1187815,16.4220764 C16.9550422,16.4225696 16.7985654,16.3582391 16.687319,16.2446914 C16.5760726,16.1311438 16.5202238,15.9787564 16.5333239,15.8245048 L16.5333239,15.8226605 Z M21.8161034,15.8226605 L21.8161034,14.2272996 L21.4414105,14.2272996 L21.4414105,15.1494735 C21.2942395,14.9779121 21.0699335,14.882176 20.8364376,14.8912648 C20.2948442,14.8912648 19.855796,15.3062005 19.855796,15.8180496 C19.855796,16.3298987 20.2948442,16.7448344 20.8364376,16.7448344 C21.0699335,16.7539232 21.2942395,16.6581871 21.4414105,16.4866257 L21.4414105,16.7005701 L21.8161034,16.7005701 L21.8161034,15.8226605 Z M20.3036711,15.8226605 C20.2905711,15.6684089 20.3464199,15.5160216 20.4576663,15.4024739 C20.5689127,15.2889262 20.7253894,15.2245957 20.8891288,15.2250889 C21.2009396,15.2704546 21.4304766,15.5249267 21.4285202,15.8230782 C21.4265637,16.1212297 21.1937048,16.3729917 20.8813227,16.4146986 C20.7179505,16.4151506 20.5618085,16.35107 20.4506271,16.2379389 C20.3394457,16.1248077 20.2833391,15.9729177 20.295865,15.8189718 L20.3036711,15.8226605 Z" id="_Compound_Path_" fill="#000000" fill-rule="nonzero"></path>
                            <g id="_Group_">
                                <rect id="Rectangle" fill="#FF5F00" x="8.47157212" y="1.50129918" width="6.14730527" height="10.4408534"></rect>
                                <path d="M8.86187722,6.72264803 C8.86017887,4.68556606 9.84966306,2.76087419 11.5452248,1.50314352 C8.66473223,-0.636290469 4.52822944,-0.324663407 2.04273937,2.21902159 C-0.442750691,4.76270658 -0.442750691,8.68443383 2.04273937,11.2281188 C4.52822944,13.7718038 8.66473223,14.0834309 11.5452248,11.9439969 C9.84912348,10.6858668 8.85957884,8.76037722 8.86187722,6.72264803 Z" id="_Path_2" fill="#EB001B"></path>
                                <path d="M22.3948807,11.2578995 L22.3948807,10.6955315 L22.5828807,10.6955315 L22.5828807,10.5791795 L22.1068807,10.5791795 L22.1068807,10.6955315 L22.2948807,10.6955315 L22.2948807,11.2578995 L22.3948807,11.2578995 Z M23.3188807,11.2578995 L23.3188807,10.5791795 L23.1748807,10.5791795 L23.0068807,11.0639795 L22.8388807,10.5791795 L22.6948807,10.5791795 L22.6948807,11.2578995 L22.7948807,11.2578995 L22.7948807,10.7440115 L22.9508807,11.1851795 L23.0588807,11.1851795 L23.2148807,10.7440115 L23.2148807,11.2578995 L23.3188807,11.2578995 Z" id="Shape" fill="#F79E1B" fill-rule="nonzero"></path>
                                <path d="M22.9128607,6.72264803 C22.9128607,9.26478287 21.3768971,11.5837313 18.9574611,12.6946269 C16.5380251,13.8055225 13.6598177,13.5133331 11.5452248,11.9421525 C13.2400466,10.6833541 14.2296053,8.75891811 14.2296053,6.72172586 C14.2296053,4.6845336 13.2400466,2.76009762 11.5452248,1.50129918 C13.6598177,-0.0698813868 16.5380251,-0.362070835 18.9574611,0.748824812 C21.3768971,1.85972046 22.9128607,4.17866884 22.9128607,6.72080368 L22.9128607,6.72264803 Z" id="Path" fill="#F79E1B"></path>
                            </g>
                        </g>
                    </g>
                </g>
            </g>
        </g>
    </g>
</svg>