<?xml version="1.0" encoding="UTF-8"?>
<svg width="43px" height="26px" viewBox="0 0 43 26" version="1.1" xmlns="http://www.w3.org/2000/svg" xmlns:xlink="http://www.w3.org/1999/xlink">
    <!-- Generator: sketchtool 61.2 (101010) - https://sketch.com -->
    <title>E9408C77-06CE-49A6-BBF9-A2B797349B8F@1</title>
    <desc>Created with sketchtool.</desc>
    <g id="Page-1" stroke="none" stroke-width="1" fill="none" fill-rule="evenodd">
        <g id="Home-Page---Banner" transform="translate(-1100.000000, -472.000000)">
            <g id="Sadad" transform="translate(1100.000000, 472.000000)">
                <rect id="Rectangle-Copy" fill="#FFFFFF" transform="translate(21.210001, 12.726000) scale(1, -1) translate(-21.210001, -12.726000) " x="0" y="0" width="42.4200013" height="25.4520008" rx="1.70649601"></rect>
                <g id="Sadad-01" transform="translate(4.000000, 8.000000)" fill-rule="nonzero">
                    <path d="M13.586999,0.00839999936 L11.8691991,0.00839999936 C11.0585992,2.25959983 9.69359926,5.99759954 8.94179931,8.04719938 C8.86619932,8.24459937 8.77379933,8.43359935 8.66039934,8.61419934 L9.84899925,8.61419934 C10.1723992,8.59319934 10.4621992,8.41259936 10.6175992,8.12699938 C10.6427992,8.08499938 10.6679992,8.03879938 10.6847992,7.99259939 L11.4029991,6.03119954 L11.4029991,6.03119954 C12.2933991,3.59099972 13.498799,0.277199979 13.586999,0.00839999936" id="Path_13" fill="#929497"></path>
                    <path d="M31.8443976,4.31339967 L31.1261976,6.27899952 C30.9917976,6.62759949 30.6683976,6.86699947 30.2945977,6.89219947 L29.1059978,6.89219947 C29.2277978,6.69899949 29.3327978,6.4931995 29.4083977,6.27899952 L30.1265977,4.31339967 L28.4045978,4.31339967 L27.6905979,6.27899952 C27.5561979,6.62759949 27.2285979,6.86699947 26.8589979,6.89219947 L25.661998,6.89219947 C25.783798,6.69899949 25.884598,6.4931995 25.964398,6.27899952 L26.682598,4.31339967 L24.9605981,4.31339967 L24.2465981,6.27899952 C24.1121982,6.62759949 23.7887982,6.86699947 23.4149982,6.89219947 L17.9129986,6.89219947 C18.0389986,6.70319949 18.1397986,6.5015995 18.2195986,6.29159952 L18.4001986,5.78759956 C18.8705986,4.49399966 18.2027986,3.45239974 16.9133987,3.45239974 L14.9561989,3.45239974 L14.3303989,5.1701996 L16.2959988,5.1701996 C16.6361987,5.1701996 16.8125987,5.44319958 16.6865987,5.78339956 L16.4975987,6.28739952 C16.3631987,6.63179949 16.0397988,6.86699947 15.6701988,6.88799947 L12.839399,6.88799947 L12.2135991,8.60999934 L29.6813977,8.60999934 C30.9749976,8.60999934 32.3777975,7.57259942 32.8481975,6.28739952 L33.5705974,4.30919967 L31.8443976,4.31339967 Z" id="Path_14" fill="#ED7624"></path>
                    <path d="M4.55279965,8.61419934 L0.00419999968,8.61419934 L0.629999952,6.89219947 L5.1827996,6.89219947 C5.55659957,6.86699947 5.88419955,6.62759949 6.02279954,6.27899952 L6.19919952,5.79179956 C6.32099952,5.45159958 6.14879953,5.1785996 5.80859955,5.1785996 L2.98199977,5.1785996 L3.60779972,3.45659974 L6.43019951,3.45659974 C7.72379941,3.45659974 8.38319936,4.50239965 7.91699939,5.79179956 L7.74059941,6.27899952 C7.27019944,7.57259942 5.84219955,8.60999934 4.55279965,8.61419934" id="Path_15" fill="#ED7624"></path>
                </g>
            </g>
        </g>
    </g>
</svg>