<?xml version="1.0" encoding="UTF-8"?>
<svg width="42px" height="24px" viewBox="0 0 42 24" version="1.1" xmlns="http://www.w3.org/2000/svg" xmlns:xlink="http://www.w3.org/1999/xlink">
    <title>430578ED-5F13-4DCE-AD59-579F7C5C10E3</title>
    <g id="Home-Page-2.1" stroke="none" stroke-width="1" fill="none" fill-rule="evenodd">
        <g id="Home---Used" transform="translate(-192.000000, -8044.000000)">
            <g id="Footer" transform="translate(0.000000, 7937.000000)">
                <g id="Group-12" transform="translate(192.000000, 107.000000)">
                    <rect id="Rectangle" fill="#FFFFFF" transform="translate(21.000000, 12.000000) scale(1, -1) translate(-21.000000, -12.000000) " x="0" y="0" width="42" height="24" rx="1.70649601"></rect>
                    <g id="GPay-logo" transform="translate(5.000000, 6.000000)" fill-rule="nonzero">
                        <g id="Pay" transform="translate(13.953328, 0.750769)" fill="#3C4043">
                            <path d="M1.18158362,5.60295139 L1.18158362,9.41799121 L0,9.41799121 L0,0.000550381249 L3.13376528,0.000550381249 C3.88968524,-0.0144694606 4.62358811,0.278417456 5.15933721,0.819131761 C6.2308354,1.84048101 6.29688666,3.5602529 5.29143972,4.66421127 C5.24740555,4.7092708 5.20337138,4.75433032 5.15933721,4.79938985 C4.60891005,5.33259423 3.93371941,5.60295139 3.13376528,5.60295139 L1.18158362,5.60295139 Z M1.18158362,1.15707821 L1.18158362,4.44642356 L3.16312139,4.44642356 C3.60346311,4.46144341 4.02912677,4.2812053 4.33002696,3.9582787 C4.94650537,3.30491559 4.93182731,2.25352665 4.29333182,1.6226933 C3.99243164,1.32229646 3.58878505,1.15707821 3.16312139,1.15707821 L1.18158362,1.15707821 Z" id="Shape"></path>
                            <path d="M8.7334442,2.76420127 C9.60678862,2.76420127 10.2966573,3.00451875 10.8030504,3.47764377 C11.3094433,3.95076878 11.5589703,4.61164182 11.5589703,5.44524305 L11.5589703,9.41799121 L10.4287599,9.41799121 L10.4287599,8.52431062 L10.3773866,8.52431062 C9.88567167,9.26028287 9.23983719,9.62826899 8.425205,9.62826899 C7.73533629,9.62826899 7.14821399,9.41799121 6.68585518,8.99743564 C6.2308354,8.60691975 5.9739694,8.02865584 5.98864746,7.42035225 C5.98864746,6.75196929 6.23817443,6.22627482 6.72988936,5.82824902 C7.22160428,5.4302232 7.88211687,5.23496526 8.70408809,5.23496526 C9.40863484,5.23496526 9.98107911,5.37014384 10.4360989,5.62548114 L10.4360989,5.34761407 C10.4360989,4.93456842 10.2599621,4.54405253 9.95172299,4.27369538 C9.63614474,3.98831838 9.23249816,3.83061005 8.81417352,3.83061005 C8.15366093,3.83061005 7.63258989,4.11598705 7.2509604,4.68674103 L6.20881831,4.01835807 C6.7665845,3.18475685 7.61057281,2.76420127 8.7334442,2.76420127 Z M7.20692623,7.44288201 C7.20692623,7.75829869 7.35370679,8.05118561 7.59589475,8.23142371 C7.86009978,8.44170149 8.18301704,8.5543503 8.51327334,8.54684038 C9.01232729,8.54684038 9.48936416,8.34407252 9.8416375,7.98359632 C10.230606,7.60810027 10.4287599,7.16501493 10.4287599,6.65434032 C10.0618084,6.35394347 9.54807639,6.20374506 8.88756381,6.21125498 C8.41052694,6.21125498 8.00688036,6.33141371 7.6839631,6.56422126 C7.36838485,6.79702881 7.20692623,7.08991572 7.20692623,7.44288201 Z" id="Shape"></path>
                            <polygon id="Path" points="18.0466716 2.97447906 14.0982742 12.2492314 12.8799954 12.2492314 14.3478012 9.00494556 11.757124 2.97447906 13.0414541 2.97447906 14.9129065 7.60059035 14.9349235 7.60059035 16.7623417 2.97447906"></polygon>
                        </g>
                        <g id="Super-G" transform="translate(0.000000, 0.000000)">
                            <path d="M10.3572043,5.52762863 C10.3572043,5.15964251 10.3278482,4.79165638 10.2691359,4.43118018 L5.28593545,4.43118018 L5.28593545,6.51142828 L8.14081763,6.51142828 C8.02339318,7.17981124 7.64176367,7.7806049 7.08399749,8.15610096 L7.08399749,9.50788672 L8.78665216,9.50788672 C9.78476007,8.56914661 10.3572043,7.17981124 10.3572043,5.52762863 Z" id="Path" fill="#4285F4"></path>
                            <path d="M5.28593545,10.814613 C6.70970703,10.814613 7.91330774,10.333978 8.78665216,9.50788672 L7.08399749,8.15610096 C6.60696063,8.48653747 5.99782124,8.6742855 5.28593545,8.6742855 C3.90619804,8.6742855 2.73929248,7.72052554 2.32096784,6.44383899 L0.566939971,6.44383899 L0.566939971,7.84068428 C1.46230147,9.66559506 3.28971963,10.814613 5.28593545,10.814613 Z" id="Path" fill="#34A853"></path>
                            <path d="M2.32096784,6.44383899 C2.10079698,5.77545602 2.10079698,5.0469937 2.32096784,4.37110081 L2.32096784,2.98176544 L0.566939971,2.98176544 C-0.18897999,4.50627938 -0.18897999,6.30866041 0.566939971,7.83317436 L2.32096784,6.44383899 Z" id="Path" fill="#FBBC04"></path>
                            <path d="M5.28593545,2.1406543 C6.04185541,2.12563446 6.76841926,2.41852137 7.31150738,2.95172576 L8.82334731,1.40468206 C7.86193454,0.488471698 6.5996216,-0.0146930028 5.28593545,0.000326839058 C3.28971963,0.000326839058 1.46230147,1.15685466 0.566939971,2.98176544 L2.32096784,4.37861073 C2.73929248,3.09441426 3.90619804,2.1406543 5.28593545,2.1406543 Z" id="Path" fill="#EA4335"></path>
                        </g>
                    </g>
                </g>
            </g>
        </g>
    </g>
</svg>