<?xml version="1.0" encoding="UTF-8"?>
<svg width="42px" height="24px" viewBox="0 0 42 24" version="1.1" xmlns="http://www.w3.org/2000/svg" xmlns:xlink="http://www.w3.org/1999/xlink">
    <title>B49D4E9B-BAD1-4161-8B80-1E7D33ADC20F</title>
    <g id="Home-Page-2.1" stroke="none" stroke-width="1" fill="none" fill-rule="evenodd">
        <g id="Home---Used" transform="translate(-246.000000, -8044.000000)">
            <g id="Footer" transform="translate(0.000000, 7937.000000)">
                <g id="Group-22" transform="translate(192.000000, 107.000000)">
                    <g id="Apple_Pay_logo" transform="translate(54.000000, 0.000000)">
                        <rect id="Rectangle" fill="#FFFFFF" transform="translate(21.000000, 12.000000) scale(1, -1) translate(-21.000000, -12.000000) " x="0" y="0" width="42" height="24" rx="1.70649601"></rect>
                        <g id="Apple_Pay_logo-Copy" transform="translate(6.000000, 7.000000)" fill="#000000" fill-rule="nonzero">
                            <path d="M5.66428508,1.67602284 C5.30096221,2.11512845 4.71964561,2.46146527 4.13832902,2.41198858 C4.06566444,1.81826832 4.35026736,1.18744053 4.68331333,0.797811608 C5.0466362,0.346336822 5.68245122,0.0247383444 6.19715862,0 C6.25771244,0.618458611 6.02155257,1.22454805 5.66428508,1.67602284 L5.66428508,1.67602284 Z M6.19110324,2.52949572 C5.34940526,2.48001903 4.6288149,3.01807802 4.22915974,3.01807802 C3.8234492,3.01807802 3.2118557,2.55423406 2.54576376,2.56660324 C1.67984425,2.57897241 0.874478554,3.07992388 0.432435727,3.87773549 C-0.475871452,5.47335871 0.196275861,7.8358706 1.07430613,9.13463368 C1.5042382,9.77783064 2.0189456,10.4828735 2.69714829,10.4581351 C3.3390187,10.4333968 3.59334471,10.0313987 4.3684335,10.0313987 C5.14957768,10.0313987 5.37362678,10.4581351 6.05182948,10.4457659 C6.75425369,10.4333968 7.19629652,9.80256898 7.62622859,9.15937203 C8.11671446,8.42959087 8.31654204,7.71836346 8.32865281,7.68125595 C8.31654204,7.66888677 6.97224742,7.14319696 6.96013666,5.55994291 C6.94802589,4.23644148 8.01982836,3.6056137 8.06827141,3.56850618 C7.46273329,2.65318744 6.51809383,2.55423406 6.19110324,2.52949572 L6.19110324,2.52949572 Z M11.0535743,0.735965747 L11.0535743,10.3777355 L12.5189766,10.3777355 L12.5189766,7.08135109 L14.5475293,7.08135109 C16.4004759,7.08135109 17.7023829,5.78258801 17.7023829,3.90247383 C17.7023829,2.02235966 16.4246975,0.735965747 14.5959723,0.735965747 L11.0535743,0.735965747 Z M12.5189766,1.99762131 L14.2084279,1.99762131 C15.480058,1.99762131 16.2067037,2.69029496 16.2067037,3.90865842 C16.2067037,5.12702188 15.480058,5.82588011 14.2023726,5.82588011 L12.5189766,5.82588011 L12.5189766,1.99762131 L12.5189766,1.99762131 Z M20.3788614,10.4519505 C21.2992793,10.4519505 22.1530881,9.97573739 22.5406325,9.22121789 L22.5709094,9.22121789 L22.5709094,10.3777355 L23.9273148,10.3777355 L23.9273148,5.57849667 C23.9273148,4.1869648 22.8373461,3.29019981 21.1600056,3.29019981 C19.6037726,3.29019981 18.4532502,4.19933397 18.4108625,5.44862036 L19.7309356,5.44862036 C19.8399325,4.8549001 20.3788614,4.46527117 21.1176179,4.46527117 C22.0138143,4.46527117 22.5164109,4.89200761 22.5164109,5.67745005 L22.5164109,6.20932445 L20.6876858,6.320647 C18.9861237,6.42578497 18.0657058,7.13701237 18.0657058,8.37392959 C18.0657058,9.62321598 19.0164006,10.4519505 20.3788614,10.4519505 Z M20.7724612,9.30780209 C19.991317,9.30780209 19.4947757,8.92435775 19.4947757,8.33682207 C19.4947757,7.73073264 19.9731508,7.37821123 20.8875134,7.32254995 L22.5164109,7.21741199 L22.5164109,7.76165557 C22.5164109,8.66460514 21.7655437,9.30780209 20.7724612,9.30780209 Z M25.7378737,13 C27.1669437,13 27.839091,12.4433873 28.426463,10.7549952 L31,3.3829686 L29.5103762,3.3829686 L27.7845926,9.07897241 L27.7543157,9.07897241 L26.028532,3.3829686 L24.4965206,3.3829686 L26.9792269,10.4024738 L26.8460085,10.8292103 C26.6219594,11.5528069 26.2586365,11.8311132 25.6107107,11.8311132 C25.4956585,11.8311132 25.2716094,11.8187441 25.1807787,11.8063749 L25.1807787,12.9628925 C25.265554,12.9876308 25.6288769,13 25.7378737,13 Z" id="XMLID_34_"></path>
                        </g>
                    </g>
                </g>
            </g>
        </g>
    </g>
</svg>