<?xml version="1.0" encoding="UTF-8"?>
<svg width="281px" height="72px" viewBox="0 0 281 72" version="1.1" xmlns="http://www.w3.org/2000/svg" xmlns:xlink="http://www.w3.org/1999/xlink">
    <title>Guaranteed</title>
    <defs>
        <polygon id="path-1" points="0 0 59.2160441 0 59.2160441 25.6039178 0 25.6039178"></polygon>
    </defs>
    <g id="Finance" stroke="none" stroke-width="1" fill="none" fill-rule="evenodd">
        <g id="Details-Page---one-price" transform="translate(-67.000000, -965.000000)">
            <g id="Guaranteed" transform="translate(67.000000, 965.000000)">
                <g id="Group-26">
                    <g id="Group-13" transform="translate(21.123708, 0.000000)">
                        <g id="Group-3">
                            <mask id="mask-2" fill="white">
                                <use xlink:href="#path-1"></use>
                            </mask>
                            <g id="Clip-2"></g>
                            <path d="M3.40184024,25.4039174 C3.82252027,25.4039174 4.16312029,25.0633174 4.16312029,24.6426374 L4.16312029,11.8171568 C4.16312029,11.7277168 4.2234403,11.6497168 4.3102803,11.6268368 L29.6077621,4.2334763 L54.8516838,11.6122768 L54.9047238,11.6268368 C54.9915638,11.6497168 55.0518838,11.7277168 55.0518838,11.8171568 L55.0518838,24.8426377 C55.0518838,25.2633178 55.3924839,25.6039178 55.8131639,25.6039178 L58.4542441,25.6039178 C58.8749241,25.6039178 59.2160441,25.2633178 59.2160441,24.8426377 L59.2160441,11.8171568 C59.2160441,9.85051669 57.894724,8.12463657 55.9982839,7.60983653 L30.3238021,0.105196007 L30.2707621,0.0906360063 C29.8480021,-0.0274040019 29.4018421,-0.0305240021 28.978562,0.0817960057 L28.918242,0.0973960068 L3.21724022,7.60983653 C1.32132009,8.12463657 0,9.85051669 0,11.8171568 L0,24.6426374 C0,25.0633174 0.340600024,25.4039174 0.761280053,25.4039174 L3.40184024,25.4039174 Z" id="Fill-1" fill="#F1B85B" mask="url(#mask-2)"></path>
                        </g>
                        <path d="M55.8131639,42.338923 C55.3924839,42.338923 55.0518838,42.679523 55.0518838,43.100203 L55.0518838,48.4234434 C55.0524038,51.6724036 53.2506037,54.6000038 50.3500435,56.0643239 L50.2902435,56.0939639 L33.4266423,66.0062046 C31.0304822,67.1933647 28.184522,67.1928447 25.7888818,66.0062046 L8.98196063,56.1277639 L8.86548062,56.0643239 C5.96544042,54.6000038 4.16312029,51.6724036 4.16312029,48.4229234 L4.16312029,43.100203 C4.16312029,42.679523 3.82252027,42.338923 3.40184024,42.338923 L0.761280053,42.338923 C0.340600024,42.338923 0,42.679523 0,43.100203 L0,48.4234434 C0,53.2292837 2.65304019,57.562964 6.92796048,59.7490442 L23.7400817,69.6306049 L23.8570817,69.6945649 C25.6578418,70.6035249 27.6328019,71.058005 29.6077621,71.058005 C31.5827222,71.058005 33.5587223,70.6035249 35.3589625,69.6945649 L35.4187625,69.6649249 L52.2880837,59.7495642 C56.563004,57.562964 59.2160441,53.2298037 59.2160441,48.4234434 L59.2160441,43.100203 C59.2160441,42.679523 58.8749241,42.338923 58.4542441,42.338923 L55.8131639,42.338923 Z" id="Fill-4" fill="#F1B85B"></path>
                    </g>
                    <path d="M5.04,37.898 C6.19733333,37.898 7.154,37.6343333 7.91,37.107 C8.666,36.5796667 9.25866667,35.9473333 9.688,35.21 L9.688,35.21 L9.688,32.102 L4.634,32.102 L4.634,34.3 L7.112,34.3 C6.67333333,34.8786667 6.09466667,35.168 5.376,35.168 C4.62,35.168 4.06,34.9766667 3.696,34.594 C3.332,34.2113333 3.15,33.6326667 3.15,32.858 C3.15,32.186 3.31333333,31.6563333 3.64,31.269 C3.96666667,30.8816667 4.42866667,30.688 5.026,30.688 C5.34333333,30.688 5.614,30.7416667 5.838,30.849 C6.062,30.9563333 6.23466667,31.108 6.356,31.304 L6.356,31.304 L9.632,31.304 C9.48266667,30.2306667 8.99966667,29.3813333 8.183,28.756 C7.36633333,28.1306667 6.30933333,27.818 5.012,27.818 C3.99466667,27.818 3.108,28.0303333 2.352,28.455 C1.596,28.8796667 1.015,29.4746667 0.609,30.24 C0.203,31.0053333 0,31.878 0,32.858 C0,33.838 0.203,34.7106667 0.609,35.476 C1.015,36.2413333 1.59833333,36.8363333 2.359,37.261 C3.11966667,37.6856667 4.01333333,37.898 5.04,37.898 Z M15.65,37.926 C16.49,37.926 17.2506667,37.758 17.932,37.422 C18.6133333,37.086 19.15,36.5843333 19.542,35.917 C19.934,35.2496667 20.13,34.4446667 20.13,33.502 L20.13,33.502 L20.13,27.916 L17.036,27.916 L17.036,33.502 C17.036,33.9593333 16.9286667,34.321 16.714,34.587 C16.4993333,34.853 16.168,34.986 15.72,34.986 C15.272,34.986 14.9476667,34.853 14.747,34.587 C14.5463333,34.321 14.446,33.9593333 14.446,33.502 L14.446,33.502 L14.446,27.916 L11.352,27.916 L11.352,33.502 C11.352,34.454 11.534,35.2613333 11.898,35.924 C12.262,36.5866667 12.7683333,37.086 13.417,37.422 C14.0656667,37.758 14.81,37.926 15.65,37.926 Z M24.636,37.828 L25.126,36.33 L28.43,36.33 L28.92,37.828 L32.196,37.828 L28.584,27.916 L25,27.916 L21.374,37.828 L24.636,37.828 Z M27.674,33.992 L25.882,33.992 L26.778,31.234 L27.674,33.992 Z M36.604,37.828 L36.604,34.272 L36.618,34.272 L38.48,37.828 L41.896,37.828 L39.74,34.034 C40.4306667,33.81 40.9603333,33.4413333 41.329,32.928 C41.6976667,32.4146667 41.882,31.8266667 41.882,31.164 C41.882,30.548 41.7396667,29.995 41.455,29.505 C41.1703333,29.015 40.7433333,28.6276667 40.174,28.343 C39.6046667,28.0583333 38.9186667,27.916 38.116,27.916 L38.116,27.916 L33.496,27.916 L33.496,37.828 L36.604,37.828 Z M37.836,32.2 L36.604,32.2 L36.604,30.52 L37.836,30.52 C38.1253333,30.52 38.347,30.5946667 38.501,30.744 C38.655,30.8933333 38.732,31.0986667 38.732,31.36 C38.732,31.6493333 38.6573333,31.8616667 38.508,31.997 C38.3586667,32.1323333 38.1346667,32.2 37.836,32.2 L37.836,32.2 Z M46.038,37.828 L46.528,36.33 L49.832,36.33 L50.322,37.828 L53.598,37.828 L49.986,27.916 L46.402,27.916 L42.776,37.828 L46.038,37.828 Z M49.076,33.992 L47.284,33.992 L48.18,31.234 L49.076,33.992 Z M58.006,37.828 L58.006,32.844 L61.296,37.828 L64.404,37.828 L64.404,27.916 L61.296,27.916 L61.296,32.984 L58.006,27.916 L54.898,27.916 L54.898,37.828 L58.006,37.828 Z M71.556,37.828 L71.556,30.38 L74.188,30.38 L74.188,27.916 L65.844,27.916 L65.844,30.38 L68.448,30.38 L68.448,37.828 L71.556,37.828 Z M82.236,37.828 L82.236,35.35 L78.736,35.35 L78.736,33.95 L81.816,33.95 L81.816,31.612 L78.736,31.612 L78.736,30.394 L82.236,30.394 L82.236,27.916 L75.628,27.916 L75.628,37.828 L82.236,37.828 Z M90.62,37.828 L90.62,35.35 L87.12,35.35 L87.12,33.95 L90.2,33.95 L90.2,31.612 L87.12,31.612 L87.12,30.394 L90.62,30.394 L90.62,27.916 L84.012,27.916 L84.012,37.828 L90.62,37.828 Z M96.526,37.828 C97.562,37.828 98.4696667,37.611 99.249,37.177 C100.028333,36.743 100.628,36.148 101.048,35.392 C101.468,34.636 101.678,33.7866667 101.678,32.844 C101.678,31.892 101.468,31.0426667 101.048,30.296 C100.628,29.5493333 100.028333,28.966 99.249,28.546 C98.4696667,28.126 97.562,27.916 96.526,27.916 L96.526,27.916 L92.396,27.916 L92.396,37.828 L96.526,37.828 Z M96.246,35.056 L95.504,35.056 L95.504,30.632 L96.246,30.632 C96.946,30.632 97.5013333,30.8233333 97.912,31.206 C98.3226667,31.5886667 98.528,32.1346667 98.528,32.844 C98.528,33.5533333 98.3226667,34.0993333 97.912,34.482 C97.5013333,34.8646667 96.946,35.056 96.246,35.056 L96.246,35.056 Z" id="GUARANTEED" fill="#154F9C" fill-rule="nonzero"></path>
                </g>
                <rect id="Rectangle" fill="#154F9C" x="114" y="15" width="2" height="41" rx="1"></rect>
                <path d="M131.906,28.458 C132.643333,28.458 133.313,28.3133333 133.915,28.024 C134.517,27.7346667 134.997667,27.303 135.357,26.729 C135.716333,26.155 135.896,25.4526667 135.896,24.622 L135.896,24.622 L135.896,18.588 L133.922,18.588 L133.922,24.636 C133.922,25.2986667 133.749333,25.805 133.404,26.155 C133.058667,26.505 132.568667,26.68 131.934,26.68 C131.308667,26.68 130.823333,26.505 130.478,26.155 C130.132667,25.805 129.96,25.2986667 129.96,24.636 L129.96,24.636 L129.96,18.588 L128,18.588 L128,24.622 C128,25.4526667 128.172667,26.155 128.518,26.729 C128.863333,27.303 129.332333,27.7346667 129.925,28.024 C130.517667,28.3133333 131.178,28.458 131.906,28.458 Z M140.754,28.486 C141.37,28.486 141.909,28.3856667 142.371,28.185 C142.833,27.9843333 143.187667,27.7066667 143.435,27.352 C143.682333,26.9973333 143.806,26.596 143.806,26.148 C143.796667,25.6346667 143.659,25.2216667 143.393,24.909 C143.127,24.5963333 142.812,24.3653333 142.448,24.216 C142.084,24.0666667 141.622,23.922 141.062,23.782 C140.511333,23.642 140.105333,23.5043333 139.844,23.369 C139.582667,23.2336667 139.452,23.0353333 139.452,22.774 C139.452,22.5406667 139.547667,22.3586667 139.739,22.228 C139.930333,22.0973333 140.203333,22.032 140.558,22.032 C140.940667,22.032 141.246333,22.123 141.475,22.305 C141.703667,22.487 141.832,22.732 141.86,23.04 L141.86,23.04 L143.736,23.04 C143.68,22.256 143.376667,21.633 142.826,21.171 C142.275333,20.709 141.538,20.478 140.614,20.478 C139.988667,20.478 139.445,20.5806667 138.983,20.786 C138.521,20.9913333 138.166333,21.2713333 137.919,21.626 C137.671667,21.9806667 137.548,22.3726667 137.548,22.802 C137.548,23.3246667 137.681,23.74 137.947,24.048 C138.213,24.356 138.530333,24.5846667 138.899,24.734 C139.267667,24.8833333 139.741333,25.028 140.32,25.168 C140.88,25.3173333 141.288333,25.455 141.545,25.581 C141.801667,25.707 141.93,25.896 141.93,26.148 C141.93,26.3813333 141.825,26.5726667 141.615,26.722 C141.405,26.8713333 141.113333,26.946 140.74,26.946 C140.357333,26.946 140.037667,26.848 139.781,26.652 C139.524333,26.456 139.377333,26.2086667 139.34,25.91 L139.34,25.91 L137.366,25.91 C137.394,26.386 137.555,26.82 137.849,27.212 C138.143,27.604 138.542,27.9143333 139.046,28.143 C139.55,28.3716667 140.119333,28.486 140.754,28.486 Z M148.804,28.486 C149.728,28.486 150.507333,28.2456667 151.142,27.765 C151.776667,27.2843333 152.206,26.6706667 152.43,25.924 L152.43,25.924 L150.316,25.924 C150.008,26.5493333 149.49,26.862 148.762,26.862 C148.258,26.862 147.833333,26.7033333 147.488,26.386 C147.142667,26.0686667 146.946667,25.63 146.9,25.07 L146.9,25.07 L152.57,25.07 C152.607333,24.846 152.626,24.594 152.626,24.314 C152.626,23.558 152.465,22.8883333 152.143,22.305 C151.821,21.7216667 151.368333,21.2713333 150.785,20.954 C150.201667,20.6366667 149.541333,20.478 148.804,20.478 C148.038667,20.478 147.362,20.6413333 146.774,20.968 C146.186,21.2946667 145.728667,21.7613333 145.402,22.368 C145.075333,22.9746667 144.912,23.6793333 144.912,24.482 C144.912,25.2753333 145.077667,25.9753333 145.409,26.582 C145.740333,27.1886667 146.202333,27.6576667 146.795,27.989 C147.387667,28.3203333 148.057333,28.486 148.804,28.486 Z M150.596,23.754 L146.914,23.754 C146.988667,23.2313333 147.191667,22.823 147.523,22.529 C147.854333,22.235 148.262667,22.088 148.748,22.088 C149.261333,22.088 149.695333,22.2396667 150.05,22.543 C150.404667,22.8463333 150.586667,23.25 150.596,23.754 L150.596,23.754 Z M157.092,28.486 C157.670667,28.486 158.179333,28.3693333 158.618,28.136 C159.056667,27.9026667 159.397333,27.5946667 159.64,27.212 L159.64,27.212 L159.64,28.36 L161.628,28.36 L161.628,18 L159.64,18 L159.64,21.682 C159.369333,21.318 159.005333,21.0263333 158.548,20.807 C158.090667,20.5876667 157.61,20.478 157.106,20.478 C156.443333,20.478 155.841333,20.6413333 155.3,20.968 C154.758667,21.2946667 154.331667,21.7613333 154.019,22.368 C153.706333,22.9746667 153.55,23.67 153.55,24.454 C153.55,25.2473333 153.706333,25.9496667 154.019,26.561 C154.331667,27.1723333 154.758667,27.646 155.3,27.982 C155.841333,28.318 156.438667,28.486 157.092,28.486 Z M157.596,26.764 C157.241333,26.764 156.907667,26.6706667 156.595,26.484 C156.282333,26.2973333 156.030333,26.029 155.839,25.679 C155.647667,25.329 155.552,24.9206667 155.552,24.454 C155.552,23.9873333 155.647667,23.5836667 155.839,23.243 C156.030333,22.9023333 156.28,22.6433333 156.588,22.466 C156.896,22.2886667 157.232,22.2 157.596,22.2 C157.96,22.2 158.300667,22.291 158.618,22.473 C158.935333,22.655 159.187333,22.9163333 159.374,23.257 C159.560667,23.5976667 159.654,24.006 159.654,24.482 C159.654,24.958 159.560667,25.3663333 159.374,25.707 C159.187333,26.0476667 158.935333,26.309 158.618,26.491 C158.300667,26.673 157.96,26.764 157.596,26.764 Z M171.358,28.444 C172.459333,28.444 173.418333,28.1663333 174.235,27.611 C175.051667,27.0556667 175.623333,26.2786667 175.95,25.28 L175.95,25.28 L173.696,25.28 C173.472,25.7466667 173.157,26.099 172.751,26.337 C172.345,26.575 171.876,26.694 171.344,26.694 C170.774667,26.694 170.268333,26.561 169.825,26.295 C169.381667,26.029 169.036333,25.651 168.789,25.161 C168.541667,24.671 168.418,24.104 168.418,23.46 C168.418,22.8066667 168.541667,22.2373333 168.789,21.752 C169.036333,21.2666667 169.381667,20.891 169.825,20.625 C170.268333,20.359 170.774667,20.226 171.344,20.226 C171.876,20.226 172.345,20.3426667 172.751,20.576 C173.157,20.8093333 173.472,21.1593333 173.696,21.626 L173.696,21.626 L175.95,21.626 C175.623333,20.6366667 175.049333,19.862 174.228,19.302 C173.406667,18.742 172.45,18.462 171.358,18.462 C170.424667,18.462 169.582333,18.6743333 168.831,19.099 C168.079667,19.5236667 167.487,20.1163333 167.053,20.877 C166.619,21.6376667 166.402,22.4986667 166.402,23.46 C166.402,24.4213333 166.619,25.28 167.053,26.036 C167.487,26.792 168.079667,27.3823333 168.831,27.807 C169.582333,28.2316667 170.424667,28.444 171.358,28.444 Z M180.654,28.486 C181.232667,28.486 181.743667,28.367 182.187,28.129 C182.630333,27.891 182.978,27.59 183.23,27.226 L183.23,27.226 L183.23,28.36 L185.204,28.36 L185.204,20.604 L183.23,20.604 L183.23,21.71 C182.968667,21.3553333 182.621,21.0613333 182.187,20.828 C181.753,20.5946667 181.246667,20.478 180.668,20.478 C180.005333,20.478 179.405667,20.6413333 178.869,20.968 C178.332333,21.2946667 177.907667,21.7613333 177.595,22.368 C177.282333,22.9746667 177.126,23.67 177.126,24.454 C177.126,25.2473333 177.282333,25.9496667 177.595,26.561 C177.907667,27.1723333 178.332333,27.646 178.869,27.982 C179.405667,28.318 180.000667,28.486 180.654,28.486 Z M181.172,26.764 C180.817333,26.764 180.483667,26.6706667 180.171,26.484 C179.858333,26.2973333 179.606333,26.029 179.415,25.679 C179.223667,25.329 179.128,24.9206667 179.128,24.454 C179.128,23.9873333 179.223667,23.5836667 179.415,23.243 C179.606333,22.9023333 179.856,22.6433333 180.164,22.466 C180.472,22.2886667 180.808,22.2 181.172,22.2 C181.536,22.2 181.876667,22.291 182.194,22.473 C182.511333,22.655 182.763333,22.9163333 182.95,23.257 C183.136667,23.5976667 183.23,24.006 183.23,24.482 C183.23,24.958 183.136667,25.3663333 182.95,25.707 C182.763333,26.0476667 182.511333,26.309 182.194,26.491 C181.876667,26.673 181.536,26.764 181.172,26.764 Z M189.082,28.36 L189.082,24.496 C189.082,23.7773333 189.238333,23.2733333 189.551,22.984 C189.863667,22.6946667 190.328,22.55 190.944,22.55 L190.944,22.55 L191.462,22.55 L191.462,20.492 C190.939333,20.492 190.475,20.6086667 190.069,20.842 C189.663,21.0753333 189.334,21.3973333 189.082,21.808 L189.082,21.808 L189.082,20.604 L187.122,20.604 L187.122,28.36 L189.082,28.36 Z M198.084,28.374 L200.38,28.36 L202.298,21.402 L204.132,28.36 L206.442,28.36 L209.172,18.588 L207.058,18.588 L205.322,26.134 L203.446,18.588 L201.262,18.588 L199.274,26.176 L197.552,18.588 L195.452,18.588 L198.084,28.374 Z M213.47,28.486 C214.048667,28.486 214.559667,28.367 215.003,28.129 C215.446333,27.891 215.794,27.59 216.046,27.226 L216.046,27.226 L216.046,28.36 L218.02,28.36 L218.02,20.604 L216.046,20.604 L216.046,21.71 C215.784667,21.3553333 215.437,21.0613333 215.003,20.828 C214.569,20.5946667 214.062667,20.478 213.484,20.478 C212.821333,20.478 212.221667,20.6413333 211.685,20.968 C211.148333,21.2946667 210.723667,21.7613333 210.411,22.368 C210.098333,22.9746667 209.942,23.67 209.942,24.454 C209.942,25.2473333 210.098333,25.9496667 210.411,26.561 C210.723667,27.1723333 211.148333,27.646 211.685,27.982 C212.221667,28.318 212.816667,28.486 213.47,28.486 Z M213.988,26.764 C213.633333,26.764 213.299667,26.6706667 212.987,26.484 C212.674333,26.2973333 212.422333,26.029 212.231,25.679 C212.039667,25.329 211.944,24.9206667 211.944,24.454 C211.944,23.9873333 212.039667,23.5836667 212.231,23.243 C212.422333,22.9023333 212.672,22.6433333 212.98,22.466 C213.288,22.2886667 213.624,22.2 213.988,22.2 C214.352,22.2 214.692667,22.291 215.01,22.473 C215.327333,22.655 215.579333,22.9163333 215.766,23.257 C215.952667,23.5976667 216.046,24.006 216.046,24.482 C216.046,24.958 215.952667,25.3663333 215.766,25.707 C215.579333,26.0476667 215.327333,26.309 215.01,26.491 C214.692667,26.673 214.352,26.764 213.988,26.764 Z M221.898,28.36 L221.898,24.496 C221.898,23.7773333 222.054333,23.2733333 222.367,22.984 C222.679667,22.6946667 223.144,22.55 223.76,22.55 L223.76,22.55 L224.278,22.55 L224.278,20.492 C223.755333,20.492 223.291,20.6086667 222.885,20.842 C222.479,21.0753333 222.15,21.3973333 221.898,21.808 L221.898,21.808 L221.898,20.604 L219.938,20.604 L219.938,28.36 L221.898,28.36 Z M227.554,28.36 L227.554,24.496 C227.554,23.7773333 227.710333,23.2733333 228.023,22.984 C228.335667,22.6946667 228.8,22.55 229.416,22.55 L229.416,22.55 L229.934,22.55 L229.934,20.492 C229.411333,20.492 228.947,20.6086667 228.541,20.842 C228.135,21.0753333 227.806,21.3973333 227.554,21.808 L227.554,21.808 L227.554,20.604 L225.594,20.604 L225.594,28.36 L227.554,28.36 Z M234.274,28.486 C234.852667,28.486 235.363667,28.367 235.807,28.129 C236.250333,27.891 236.598,27.59 236.85,27.226 L236.85,27.226 L236.85,28.36 L238.824,28.36 L238.824,20.604 L236.85,20.604 L236.85,21.71 C236.588667,21.3553333 236.241,21.0613333 235.807,20.828 C235.373,20.5946667 234.866667,20.478 234.288,20.478 C233.625333,20.478 233.025667,20.6413333 232.489,20.968 C231.952333,21.2946667 231.527667,21.7613333 231.215,22.368 C230.902333,22.9746667 230.746,23.67 230.746,24.454 C230.746,25.2473333 230.902333,25.9496667 231.215,26.561 C231.527667,27.1723333 231.952333,27.646 232.489,27.982 C233.025667,28.318 233.620667,28.486 234.274,28.486 Z M234.792,26.764 C234.437333,26.764 234.103667,26.6706667 233.791,26.484 C233.478333,26.2973333 233.226333,26.029 233.035,25.679 C232.843667,25.329 232.748,24.9206667 232.748,24.454 C232.748,23.9873333 232.843667,23.5836667 233.035,23.243 C233.226333,22.9023333 233.476,22.6433333 233.784,22.466 C234.092,22.2886667 234.428,22.2 234.792,22.2 C235.156,22.2 235.496667,22.291 235.814,22.473 C236.131333,22.655 236.383333,22.9163333 236.57,23.257 C236.756667,23.5976667 236.85,24.006 236.85,24.482 C236.85,24.958 236.756667,25.3663333 236.57,25.707 C236.383333,26.0476667 236.131333,26.309 235.814,26.491 C235.496667,26.673 235.156,26.764 234.792,26.764 Z M242.702,28.36 L242.702,24.076 C242.702,23.46 242.858333,22.9863333 243.171,22.655 C243.483667,22.3236667 243.910667,22.158 244.452,22.158 C244.984,22.158 245.404,22.3236667 245.712,22.655 C246.02,22.9863333 246.174,23.46 246.174,24.076 L246.174,24.076 L246.174,28.36 L248.134,28.36 L248.134,23.81 C248.134,22.7646667 247.849333,21.9503333 247.28,21.367 C246.710667,20.7836667 245.964,20.492 245.04,20.492 C244.554667,20.492 244.109,20.5876667 243.703,20.779 C243.297,20.9703333 242.963333,21.234 242.702,21.57 L242.702,21.57 L242.702,20.604 L240.742,20.604 L240.742,28.36 L242.702,28.36 Z M254.014,28.36 L254.014,26.708 L253.104,26.708 C252.805333,26.708 252.593,26.6496667 252.467,26.533 C252.341,26.4163333 252.278,26.2273333 252.278,25.966 L252.278,25.966 L252.278,22.214 L254.014,22.214 L254.014,20.604 L252.278,20.604 L252.278,18.686 L250.304,18.686 L250.304,20.604 L249.38,20.604 L249.38,22.214 L250.304,22.214 L250.304,25.952 C250.304,27.5573333 251.13,28.36 252.782,28.36 L252.782,28.36 L254.014,28.36 Z M258.046,32.028 L262.848,20.604 L260.762,20.604 L258.732,26.022 L256.73,20.604 L254.532,20.604 L257.64,28.164 L255.96,32.028 L258.046,32.028 Z M129.988,48.36 L129.988,44.608 L131.626,44.608 C132.428667,44.608 133.093667,44.468 133.621,44.188 C134.148333,43.908 134.535667,43.5393333 134.783,43.082 C135.030333,42.6246667 135.154,42.1346667 135.154,41.612 C135.154,41.0333333 135.021,40.5153333 134.755,40.058 C134.489,39.6006667 134.09,39.2413333 133.558,38.98 C133.026,38.7186667 132.382,38.588 131.626,38.588 L131.626,38.588 L128.028,38.588 L128.028,48.36 L129.988,48.36 Z M131.542,43.026 L129.988,43.026 L129.988,40.184 L131.542,40.184 C132.606,40.184 133.138,40.66 133.138,41.612 C133.138,42.06 133.007333,42.4076667 132.746,42.655 C132.484667,42.9023333 132.083333,43.026 131.542,43.026 L131.542,43.026 Z M138.5,48.36 L138.5,44.496 C138.5,43.7773333 138.656333,43.2733333 138.969,42.984 C139.281667,42.6946667 139.746,42.55 140.362,42.55 L140.362,42.55 L140.88,42.55 L140.88,40.492 C140.357333,40.492 139.893,40.6086667 139.487,40.842 C139.081,41.0753333 138.752,41.3973333 138.5,41.808 L138.5,41.808 L138.5,40.604 L136.54,40.604 L136.54,48.36 L138.5,48.36 Z M145.64,48.486 C146.396,48.486 147.079667,48.3203333 147.691,47.989 C148.302333,47.6576667 148.787667,47.1886667 149.147,46.582 C149.506333,45.9753333 149.686,45.2753333 149.686,44.482 C149.686,43.6886667 149.511,42.9886667 149.161,42.382 C148.811,41.7753333 148.332667,41.3063333 147.726,40.975 C147.119333,40.6436667 146.442667,40.478 145.696,40.478 C144.949333,40.478 144.272667,40.6436667 143.666,40.975 C143.059333,41.3063333 142.581,41.7753333 142.231,42.382 C141.881,42.9886667 141.706,43.6886667 141.706,44.482 C141.706,45.2753333 141.876333,45.9753333 142.217,46.582 C142.557667,47.1886667 143.026667,47.6576667 143.624,47.989 C144.221333,48.3203333 144.893333,48.486 145.64,48.486 Z M145.64,46.778 C145.08,46.778 144.615667,46.5796667 144.247,46.183 C143.878333,45.7863333 143.694,45.2193333 143.694,44.482 C143.694,43.7446667 143.883,43.1776667 144.261,42.781 C144.639,42.3843333 145.108,42.186 145.668,42.186 C146.228,42.186 146.701667,42.3843333 147.089,42.781 C147.476333,43.1776667 147.67,43.7446667 147.67,44.482 C147.67,44.9766667 147.576667,45.3966667 147.39,45.742 C147.203333,46.0873333 146.953667,46.3463333 146.641,46.519 C146.328333,46.6916667 145.994667,46.778 145.64,46.778 Z M154.866,52.182 C155.687333,52.182 156.387333,52.0163333 156.966,51.685 C157.544667,51.3536667 157.978667,50.9056667 158.268,50.341 C158.557333,49.7763333 158.702,49.1346667 158.702,48.416 L158.702,48.416 L158.702,40.604 L156.728,40.604 L156.728,41.71 C156.476,41.346 156.130667,41.0496667 155.692,40.821 C155.253333,40.5923333 154.744667,40.478 154.166,40.478 C153.503333,40.478 152.903667,40.6413333 152.367,40.968 C151.830333,41.2946667 151.405667,41.7613333 151.093,42.368 C150.780333,42.9746667 150.624,43.67 150.624,44.454 C150.624,45.2473333 150.780333,45.9496667 151.093,46.561 C151.405667,47.1723333 151.832667,47.646 152.374,47.982 C152.915333,48.318 153.512667,48.486 154.166,48.486 C154.735333,48.486 155.241667,48.3646667 155.685,48.122 C156.128333,47.8793333 156.476,47.576 156.728,47.212 L156.728,47.212 L156.728,48.416 C156.728,49.1066667 156.550667,49.6223333 156.196,49.963 C155.841333,50.3036667 155.379333,50.474 154.81,50.474 C154.324667,50.474 153.911667,50.369 153.571,50.159 C153.230333,49.949 153.008667,49.6666667 152.906,49.312 L152.906,49.312 L150.96,49.312 C151.053333,50.1986667 151.452333,50.8986667 152.157,51.412 C152.861667,51.9253333 153.764667,52.182 154.866,52.182 Z M154.67,46.764 C154.315333,46.764 153.981667,46.6706667 153.669,46.484 C153.356333,46.2973333 153.104333,46.029 152.913,45.679 C152.721667,45.329 152.626,44.9206667 152.626,44.454 C152.626,43.9873333 152.721667,43.5836667 152.913,43.243 C153.104333,42.9023333 153.354,42.6433333 153.662,42.466 C153.97,42.2886667 154.306,42.2 154.67,42.2 C155.034,42.2 155.374667,42.291 155.692,42.473 C156.009333,42.655 156.261333,42.9163333 156.448,43.257 C156.634667,43.5976667 156.728,44.006 156.728,44.482 C156.728,44.958 156.634667,45.3663333 156.448,45.707 C156.261333,46.0476667 156.009333,46.309 155.692,46.491 C155.374667,46.673 155.034,46.764 154.67,46.764 Z M162.58,48.36 L162.58,44.496 C162.58,43.7773333 162.736333,43.2733333 163.049,42.984 C163.361667,42.6946667 163.826,42.55 164.442,42.55 L164.442,42.55 L164.96,42.55 L164.96,40.492 C164.437333,40.492 163.973,40.6086667 163.567,40.842 C163.161,41.0753333 162.832,41.3973333 162.58,41.808 L162.58,41.808 L162.58,40.604 L160.62,40.604 L160.62,48.36 L162.58,48.36 Z M169.3,48.486 C169.878667,48.486 170.389667,48.367 170.833,48.129 C171.276333,47.891 171.624,47.59 171.876,47.226 L171.876,47.226 L171.876,48.36 L173.85,48.36 L173.85,40.604 L171.876,40.604 L171.876,41.71 C171.614667,41.3553333 171.267,41.0613333 170.833,40.828 C170.399,40.5946667 169.892667,40.478 169.314,40.478 C168.651333,40.478 168.051667,40.6413333 167.515,40.968 C166.978333,41.2946667 166.553667,41.7613333 166.241,42.368 C165.928333,42.9746667 165.772,43.67 165.772,44.454 C165.772,45.2473333 165.928333,45.9496667 166.241,46.561 C166.553667,47.1723333 166.978333,47.646 167.515,47.982 C168.051667,48.318 168.646667,48.486 169.3,48.486 Z M169.818,46.764 C169.463333,46.764 169.129667,46.6706667 168.817,46.484 C168.504333,46.2973333 168.252333,46.029 168.061,45.679 C167.869667,45.329 167.774,44.9206667 167.774,44.454 C167.774,43.9873333 167.869667,43.5836667 168.061,43.243 C168.252333,42.9023333 168.502,42.6433333 168.81,42.466 C169.118,42.2886667 169.454,42.2 169.818,42.2 C170.182,42.2 170.522667,42.291 170.84,42.473 C171.157333,42.655 171.409333,42.9163333 171.596,43.257 C171.782667,43.5976667 171.876,44.006 171.876,44.482 C171.876,44.958 171.782667,45.3663333 171.596,45.707 C171.409333,46.0476667 171.157333,46.309 170.84,46.491 C170.522667,46.673 170.182,46.764 169.818,46.764 Z M177.728,48.36 L177.728,44.076 C177.728,43.4693333 177.884333,43.005 178.197,42.683 C178.509667,42.361 178.936667,42.2 179.478,42.2 C180.01,42.2 180.43,42.361 180.738,42.683 C181.046,43.005 181.2,43.4693333 181.2,44.076 L181.2,44.076 L181.2,48.36 L183.16,48.36 L183.16,44.076 C183.16,43.4693333 183.316333,43.005 183.629,42.683 C183.941667,42.361 184.364,42.2 184.896,42.2 C185.428,42.2 185.848,42.361 186.156,42.683 C186.464,43.005 186.618,43.4693333 186.618,44.076 L186.618,44.076 L186.618,48.36 L188.578,48.36 L188.578,43.81 C188.578,42.7646667 188.286333,41.9503333 187.703,41.367 C187.119667,40.7836667 186.352,40.492 185.4,40.492 C184.84,40.492 184.319667,40.6273333 183.839,40.898 C183.358333,41.1686667 182.992,41.528 182.74,41.976 C182.478667,41.5 182.11,41.1336667 181.634,40.877 C181.158,40.6203333 180.616667,40.492 180.01,40.492 C179.534,40.492 179.097667,40.5853333 178.701,40.772 C178.304333,40.9586667 177.98,41.2153333 177.728,41.542 L177.728,41.542 L177.728,40.604 L175.768,40.604 L175.768,48.36 L177.728,48.36 Z M195.97,48.36 L195.97,42.214 L197.328,42.214 L197.328,40.604 L195.97,40.604 L195.97,40.282 C195.97,39.8433333 196.063333,39.54 196.25,39.372 C196.436667,39.204 196.768,39.1246667 197.244,39.134 L197.244,39.134 L197.244,37.482 C196.152,37.454 195.335333,37.664 194.794,38.112 C194.252667,38.56 193.982,39.26 193.982,40.212 L193.982,40.212 L193.982,40.604 L193.1,40.604 L193.1,42.214 L193.982,42.214 L193.982,48.36 L195.97,48.36 Z M200.562,48.36 L200.562,44.496 C200.562,43.7773333 200.718333,43.2733333 201.031,42.984 C201.343667,42.6946667 201.808,42.55 202.424,42.55 L202.424,42.55 L202.942,42.55 L202.942,40.492 C202.419333,40.492 201.955,40.6086667 201.549,40.842 C201.143,41.0753333 200.814,41.3973333 200.562,41.808 L200.562,41.808 L200.562,40.604 L198.602,40.604 L198.602,48.36 L200.562,48.36 Z M207.702,48.486 C208.458,48.486 209.141667,48.3203333 209.753,47.989 C210.364333,47.6576667 210.849667,47.1886667 211.209,46.582 C211.568333,45.9753333 211.748,45.2753333 211.748,44.482 C211.748,43.6886667 211.573,42.9886667 211.223,42.382 C210.873,41.7753333 210.394667,41.3063333 209.788,40.975 C209.181333,40.6436667 208.504667,40.478 207.758,40.478 C207.011333,40.478 206.334667,40.6436667 205.728,40.975 C205.121333,41.3063333 204.643,41.7753333 204.293,42.382 C203.943,42.9886667 203.768,43.6886667 203.768,44.482 C203.768,45.2753333 203.938333,45.9753333 204.279,46.582 C204.619667,47.1886667 205.088667,47.6576667 205.686,47.989 C206.283333,48.3203333 206.955333,48.486 207.702,48.486 Z M207.702,46.778 C207.142,46.778 206.677667,46.5796667 206.309,46.183 C205.940333,45.7863333 205.756,45.2193333 205.756,44.482 C205.756,43.7446667 205.945,43.1776667 206.323,42.781 C206.701,42.3843333 207.17,42.186 207.73,42.186 C208.29,42.186 208.763667,42.3843333 209.151,42.781 C209.538333,43.1776667 209.732,43.7446667 209.732,44.482 C209.732,44.9766667 209.638667,45.3966667 209.452,45.742 C209.265333,46.0873333 209.015667,46.3463333 208.703,46.519 C208.390333,46.6916667 208.056667,46.778 207.702,46.778 Z M215.15,48.36 L215.15,44.076 C215.15,43.4693333 215.306333,43.005 215.619,42.683 C215.931667,42.361 216.358667,42.2 216.9,42.2 C217.432,42.2 217.852,42.361 218.16,42.683 C218.468,43.005 218.622,43.4693333 218.622,44.076 L218.622,44.076 L218.622,48.36 L220.582,48.36 L220.582,44.076 C220.582,43.4693333 220.738333,43.005 221.051,42.683 C221.363667,42.361 221.786,42.2 222.318,42.2 C222.85,42.2 223.27,42.361 223.578,42.683 C223.886,43.005 224.04,43.4693333 224.04,44.076 L224.04,44.076 L224.04,48.36 L226,48.36 L226,43.81 C226,42.7646667 225.708333,41.9503333 225.125,41.367 C224.541667,40.7836667 223.774,40.492 222.822,40.492 C222.262,40.492 221.741667,40.6273333 221.261,40.898 C220.780333,41.1686667 220.414,41.528 220.162,41.976 C219.900667,41.5 219.532,41.1336667 219.056,40.877 C218.58,40.6203333 218.038667,40.492 217.432,40.492 C216.956,40.492 216.519667,40.5853333 216.123,40.772 C215.726333,40.9586667 215.402,41.2153333 215.15,41.542 L215.15,41.542 L215.15,40.604 L213.19,40.604 L213.19,48.36 L215.15,48.36 Z M234.568,48.458 C235.286667,48.458 235.907333,48.325 236.43,48.059 C236.952667,47.793 237.349333,47.436 237.62,46.988 C237.890667,46.54 238.026,46.0546667 238.026,45.532 C238.026,44.9253333 237.881333,44.4353333 237.592,44.062 C237.302667,43.6886667 236.957333,43.4086667 236.556,43.222 C236.154667,43.0353333 235.636667,42.8486667 235.002,42.662 C234.535333,42.522 234.173667,42.3983333 233.917,42.291 C233.660333,42.1836667 233.445667,42.0436667 233.273,41.871 C233.100333,41.6983333 233.014,41.4813333 233.014,41.22 C233.014,40.8466667 233.128333,40.562 233.357,40.366 C233.585667,40.17 233.891333,40.072 234.274,40.072 C234.712667,40.072 235.065,40.1816667 235.331,40.401 C235.597,40.6203333 235.739333,40.898 235.758,41.234 L235.758,41.234 L237.914,41.234 C237.848667,40.3566667 237.501,39.673 236.871,39.183 C236.241,38.693 235.422,38.448 234.414,38.448 C233.742,38.448 233.144667,38.5623333 232.622,38.791 C232.099333,39.0196667 231.693333,39.3486667 231.404,39.778 C231.114667,40.2073333 230.97,40.7113333 230.97,41.29 C230.97,41.906 231.112333,42.3983333 231.397,42.767 C231.681667,43.1356667 232.022333,43.411 232.419,43.593 C232.815667,43.775 233.331333,43.9593333 233.966,44.146 C234.432667,44.2766667 234.799,44.3956667 235.065,44.503 C235.331,44.6103333 235.552667,44.7573333 235.73,44.944 C235.907333,45.1306667 235.996,45.3686667 235.996,45.658 C235.996,46.0126667 235.865333,46.2996667 235.604,46.519 C235.342667,46.7383333 234.983333,46.848 234.526,46.848 C234.078,46.848 233.725667,46.7313333 233.469,46.498 C233.212333,46.2646667 233.07,45.9473333 233.042,45.546 L233.042,45.546 L230.942,45.546 C230.951333,46.1433333 231.114667,46.6613333 231.432,47.1 C231.749333,47.5386667 232.181,47.8746667 232.727,48.108 C233.273,48.3413333 233.886667,48.458 234.568,48.458 Z M242.338,52.028 L247.14,40.604 L245.054,40.604 L243.024,46.022 L241.022,40.604 L238.824,40.604 L241.932,48.164 L240.252,52.028 L242.338,52.028 Z M251.214,48.486 C251.792667,48.486 252.303667,48.367 252.747,48.129 C253.190333,47.891 253.538,47.59 253.79,47.226 L253.79,47.226 L253.79,48.36 L255.764,48.36 L255.764,40.604 L253.79,40.604 L253.79,41.71 C253.528667,41.3553333 253.181,41.0613333 252.747,40.828 C252.313,40.5946667 251.806667,40.478 251.228,40.478 C250.565333,40.478 249.965667,40.6413333 249.429,40.968 C248.892333,41.2946667 248.467667,41.7613333 248.155,42.368 C247.842333,42.9746667 247.686,43.67 247.686,44.454 C247.686,45.2473333 247.842333,45.9496667 248.155,46.561 C248.467667,47.1723333 248.892333,47.646 249.429,47.982 C249.965667,48.318 250.560667,48.486 251.214,48.486 Z M251.732,46.764 C251.377333,46.764 251.043667,46.6706667 250.731,46.484 C250.418333,46.2973333 250.166333,46.029 249.975,45.679 C249.783667,45.329 249.688,44.9206667 249.688,44.454 C249.688,43.9873333 249.783667,43.5836667 249.975,43.243 C250.166333,42.9023333 250.416,42.6433333 250.724,42.466 C251.032,42.2886667 251.368,42.2 251.732,42.2 C252.096,42.2 252.436667,42.291 252.754,42.473 C253.071333,42.655 253.323333,42.9163333 253.51,43.257 C253.696667,43.5976667 253.79,44.006 253.79,44.482 C253.79,44.958 253.696667,45.3663333 253.51,45.707 C253.323333,46.0476667 253.071333,46.309 252.754,46.491 C252.436667,46.673 252.096,46.764 251.732,46.764 Z M259.642,48.36 L259.642,44.496 C259.642,43.7773333 259.798333,43.2733333 260.111,42.984 C260.423667,42.6946667 260.888,42.55 261.504,42.55 L261.504,42.55 L262.022,42.55 L262.022,40.492 C261.499333,40.492 261.035,40.6086667 260.629,40.842 C260.223,41.0753333 259.894,41.3973333 259.642,41.808 L259.642,41.808 L259.642,40.604 L257.682,40.604 L257.682,48.36 L259.642,48.36 Z M266.362,48.486 C266.940667,48.486 267.451667,48.367 267.895,48.129 C268.338333,47.891 268.686,47.59 268.938,47.226 L268.938,47.226 L268.938,48.36 L270.912,48.36 L270.912,40.604 L268.938,40.604 L268.938,41.71 C268.676667,41.3553333 268.329,41.0613333 267.895,40.828 C267.461,40.5946667 266.954667,40.478 266.376,40.478 C265.713333,40.478 265.113667,40.6413333 264.577,40.968 C264.040333,41.2946667 263.615667,41.7613333 263.303,42.368 C262.990333,42.9746667 262.834,43.67 262.834,44.454 C262.834,45.2473333 262.990333,45.9496667 263.303,46.561 C263.615667,47.1723333 264.040333,47.646 264.577,47.982 C265.113667,48.318 265.708667,48.486 266.362,48.486 Z M266.88,46.764 C266.525333,46.764 266.191667,46.6706667 265.879,46.484 C265.566333,46.2973333 265.314333,46.029 265.123,45.679 C264.931667,45.329 264.836,44.9206667 264.836,44.454 C264.836,43.9873333 264.931667,43.5836667 265.123,43.243 C265.314333,42.9023333 265.564,42.6433333 265.872,42.466 C266.18,42.2886667 266.516,42.2 266.88,42.2 C267.244,42.2 267.584667,42.291 267.902,42.473 C268.219333,42.655 268.471333,42.9163333 268.658,43.257 C268.844667,43.5976667 268.938,44.006 268.938,44.482 C268.938,44.958 268.844667,45.3663333 268.658,45.707 C268.471333,46.0476667 268.219333,46.309 267.902,46.491 C267.584667,46.673 267.244,46.764 266.88,46.764 Z M274.79,48.36 L274.79,44.076 C274.79,43.46 274.946333,42.9863333 275.259,42.655 C275.571667,42.3236667 275.998667,42.158 276.54,42.158 C277.072,42.158 277.492,42.3236667 277.8,42.655 C278.108,42.9863333 278.262,43.46 278.262,44.076 L278.262,44.076 L278.262,48.36 L280.222,48.36 L280.222,43.81 C280.222,43.11 280.093667,42.5103333 279.837,42.011 C279.580333,41.5116667 279.223333,41.1336667 278.766,40.877 C278.308667,40.6203333 277.786,40.492 277.198,40.492 C276.684667,40.492 276.218,40.5876667 275.798,40.779 C275.378,40.9703333 275.042,41.234 274.79,41.57 L274.79,41.57 L274.79,38 L272.83,38 L272.83,48.36 L274.79,48.36 Z" id="UsedCarWarrantyProgramfromSyarah" fill="#154F9C" fill-rule="nonzero"></path>
            </g>
        </g>
    </g>
</svg>