<?xml version="1.0" encoding="UTF-8"?>
<svg width="20px" height="26px" viewBox="0 0 20 26" version="1.1" xmlns="http://www.w3.org/2000/svg" xmlns:xlink="http://www.w3.org/1999/xlink">
    <title>shield (14)@1</title>
    <g id="Page-1" stroke="none" stroke-width="1" fill="none" fill-rule="evenodd">
        <g id="Details-Page---Finance---Used" transform="translate(-360.000000, -1198.000000)" fill-rule="nonzero">
            <g id="shield-(14)" transform="translate(360.000000, 1198.000000)">
                <path d="M19.3366651,3.94556346 L10.1907019,0.0596850765 C10.0033988,-0.0198950255 9.7917017,-0.0198950255 9.60429856,0.0596850765 L0.458335399,3.94556346 C0.181504617,4.06323404 0.00174956254,4.33486612 0.00174956254,4.6356909 L0.00174956254,12.2794297 C0.00174956254,14.2237435 0.514071463,16.1363653 1.52436885,17.9641083 C2.32081971,19.404898 3.42674318,20.7944006 4.81134698,22.0938757 C6.03294153,23.240389 7.2524866,24.1054727 8.06048457,24.6293417 C8.51921987,24.9267174 8.8982251,25.1490118 9.1354158,25.2831782 C9.58995215,25.540114 9.6845285,25.5936006 9.89752524,25.5936006 C10.0166455,25.5936006 10.1322665,25.5653077 10.2359406,25.5129208 C10.3341661,25.4632832 12.6683824,24.2717811 15.0012491,22.0773298 C16.381554,20.7789045 17.4837784,19.3909515 18.27738,17.9519613 C19.2832285,16.1279674 19.7932509,14.2194446 19.7932509,12.2794797 L19.7932509,4.6356909 C19.7932509,4.33486612 19.6135459,4.06323404 19.3366651,3.94556346 L19.3366651,3.94556346 Z M18.2936759,12.2794297 C18.2936759,13.9604094 17.8477874,15.6225938 16.9685072,17.2197944 C16.2525362,18.5204192 15.2489372,19.7834034 13.9856031,20.9738057 C12.3052732,22.5571099 10.6015492,23.5931008 9.89702537,23.9908514 C9.19735031,23.59655 7.51427115,22.5739556 5.83764037,21.0003991 C4.56715804,19.8080472 3.55756047,18.5423637 2.83684068,17.2385897 C1.95066226,15.6355405 1.5013746,13.9670577 1.5013746,12.2794297 L1.5013746,5.13181685 L9.89752524,1.56445883 L18.2936759,5.13176686 L18.2936759,12.2794297 L18.2936759,12.2794297 Z" id="Shape" fill="#154F9C"></path>
                <path d="M4.2157459,7.16435864 C3.92671817,7.27603071 3.73616582,7.55396122 3.73616582,7.86378375 L3.73616582,12.3865029 C3.73616582,14.5249182 4.75361142,16.6101968 6.6785801,18.4167951 C7.41789524,19.1106716 8.15546082,19.6338908 8.64403866,19.9506616 C9.59999963,20.5704566 9.73786516,20.5704566 9.89752524,20.5704566 C10.0149959,20.5704566 10.1308669,20.5428135 10.2357407,20.4898767 C10.4735312,20.3697568 16.0588347,17.4889771 16.0588347,12.3865529 L16.0588347,7.86383374 C16.0588347,7.55401121 15.8682323,7.2760807 15.5792546,7.16440862 L10.1677077,5.07358141 C9.99380117,5.0064482 9.80114934,5.0064482 9.62719283,5.07358141 L4.2157459,7.16435864 Z" id="Shape" fill="#F1B85B"></path>
                <path d="M10.6956172,12.7758036 L12.2772942,12.7758036 C12.6822923,12.7550071 13,12.4205667 13,12.015035 C13,11.6095032 12.6822923,11.2750628 12.2772942,11.2542663 L10.6956172,11.2542663 L10.6956172,9.72270578 C10.6748207,9.31770766 10.3403803,9 9.93484854,9 C9.52931682,9 9.19487641,9.31770766 9.17407991,9.72270578 L9.17407991,11.256271 L7.72270578,11.256271 C7.31770766,11.2770675 7,11.6115079 7,12.0170396 C7,12.4225713 7.31770766,12.7570117 7.72270578,12.7778082 L9.17407991,12.7778082 L9.17407991,14.2772942 C9.19487641,14.6822923 9.52931682,15 9.93484854,15 C10.3403803,15 10.6748207,14.6822923 10.6956172,14.2772942 L10.6956172,12.7758036 Z" id="Path" fill="#154F9C"></path>
            </g>
        </g>
    </g>
</svg>