<?xml version="1.0" encoding="UTF-8"?>
<svg width="22px" height="22px" viewBox="0 0 22 22" version="1.1" xmlns="http://www.w3.org/2000/svg" xmlns:xlink="http://www.w3.org/1999/xlink">
    <title>guarantee copy@1</title>
    <g id="Checkout" stroke="none" stroke-width="1" fill="none" fill-rule="evenodd">
        <g id="Checkout---Step-1" transform="translate(-357.000000, -866.000000)" fill-rule="nonzero">
            <g id="guarantee-copy" transform="translate(358.000000, 867.000000)">
                <circle id="Oval" fill="#F1B85B" cx="9.96820875" cy="9.96820875" r="7.41941478"></circle>
                <path d="M8.97515318,13.5935679 L8.97515318,6.38557851 L6.05933288,6.38557851 L6.05933288,8.01680665 L7.14002152,8.01680665 L7.14002152,13.5935679 L8.97515318,13.5935679 Z M12.8697104,13.5833727 C13.8620408,13.5833727 14.5875975,13.2537287 15.0463804,12.5944406 C15.5051633,11.9351526 15.7345548,11.0413755 15.7345548,9.91310937 C15.7345548,8.79164002 15.5051633,7.90296052 15.0463804,7.24707087 C14.5875975,6.59118122 13.8620408,6.2632364 12.8697104,6.2632364 C11.8705831,6.2632364 11.1433273,6.59118122 10.6879427,7.24707087 C10.2325582,7.90296052 10.004866,8.79164002 10.004866,9.91310937 C10.004866,11.0413755 10.2325582,11.9351526 10.6879427,12.5944406 C11.1433273,13.2537287 11.8705831,13.5833727 12.8697104,13.5833727 Z M12.8697104,11.9317542 C12.4143259,11.9317542 12.1084706,11.756737 11.9521445,11.4067026 C11.7958185,11.0566683 11.7176555,10.5588038 11.7176555,9.91310937 C11.7176555,9.27421168 11.7958185,8.78144484 11.9521445,8.43480886 C12.1084706,8.08817288 12.4143259,7.91485489 12.8697104,7.91485489 C13.3182981,7.91485489 13.6190558,8.08647369 13.7719834,8.42971127 C13.9249111,8.77294886 14.0013749,9.26741489 14.0013749,9.91310937 C14.0013749,10.5588038 13.9249111,11.0566683 13.7719834,11.4067026 C13.6190558,11.756737 13.3182981,11.9317542 12.8697104,11.9317542 Z" id="10" fill="#154F9C"></path>
                <path d="M20,10.0000688 C20,4.48614017 15.5139287,0 10.0000688,0 C8.28713389,0 6.67391544,0.433549879 5.26322671,1.19549659 C3.08969665,0.112585334 1.52031491,-0.0419098216 0.723202488,0.756166043 C-0.145204801,1.62457333 0.188353336,3.33035124 1.17547071,5.30197093 C0.426461682,6.70357575 0,8.3029619 0,10.0000688 C0,15.5139287 4.48614017,20.0001376 10.0000688,20.0001376 C11.6955241,20.0001376 13.2929834,19.5746394 14.6936248,18.8269379 C15.859461,19.4088582 16.9610218,19.7791648 17.8442937,19.7791648 C18.415272,19.7791648 18.8956177,19.6256331 19.2439716,19.2769351 C20.0417034,18.4792034 19.8875523,16.9101657 18.804641,14.7369109 C19.5665189,13.3261534 20,11.7129349 20,10.0000688 Z M1.17939331,1.21228804 C1.70715426,0.684527087 2.93905527,0.827116824 4.59776206,1.59133451 C3.38162024,2.37523398 2.34646829,3.41485906 1.56773013,4.63457939 C0.793878,2.94352841 0.67420447,1.71740806 1.17939331,1.21228804 Z M10.0000688,19.3549053 C4.84165107,19.3549053 0.64516351,15.1584177 0.64516351,10 C0.64516351,8.56935422 0.969018388,7.21351299 1.54550209,5.99998624 C2.41225776,7.55099372 3.62516516,9.2183715 4.94102345,10.7474262 L3.80780665,10.9741797 L3.93456838,11.6067496 L5.71879817,11.25 L6.42878771,9.47485411 L5.82973189,9.23516296 L5.40616054,10.2941946 C3.81778518,8.44940542 2.65291235,6.74906408 1.90548613,5.3200011 C3.52579278,2.52807752 6.54612145,0.64516351 10.0000688,0.64516351 C15.1584866,0.64516351 19.3549741,4.84165107 19.3549741,10.0000688 C19.3549741,13.4539474 17.4720601,16.474276 14.6804118,18.0945827 C13.6394104,17.547484 12.480387,16.8006772 11.270714,15.8732933 L10.8781105,16.3852263 C11.8745871,17.149444 12.9477951,17.8742981 13.9939578,18.4574571 C12.7820139,19.0320139 11.4280307,19.3549053 10.0000688,19.3549053 Z M18.7877808,18.8207443 C18.2474262,19.3610989 16.9932284,19.1858897 15.3632873,18.4336462 C16.583971,17.6546328 17.6242843,16.6187927 18.4088031,15.4023756 C19.172952,17.0607383 19.3155417,18.2929834 18.7877808,18.8207443 Z" id="Shape" stroke="#154F9C" stroke-width="0.6" fill="#154F9C"></path>
            </g>
        </g>
    </g>
</svg>